<?xml version="1.0" encoding="UTF-8" standalone="no"?>
<!-- Created with Inkscape (http://www.inkscape.org/) -->

<svg
   xmlns:dc="http://purl.org/dc/elements/1.1/"
   xmlns:cc="http://creativecommons.org/ns#"
   xmlns:rdf="http://www.w3.org/1999/02/22-rdf-syntax-ns#"
   xmlns:svg="http://www.w3.org/2000/svg"
   xmlns="http://www.w3.org/2000/svg"
   xmlns:sodipodi="http://sodipodi.sourceforge.net/DTD/sodipodi-0.dtd"
   xmlns:inkscape="http://www.inkscape.org/namespaces/inkscape"
   id="svg3336"
   version="1.1"
   inkscape:version="0.91 r13725"
   width="1250"
   height="950"
   viewBox="0 0 1250 949.99997"
   sodipodi:docname="遮雨棚.svg">
  <metadata
     id="metadata3342">
    <rdf:RDF>
      <cc:Work
         rdf:about="">
        <dc:format>image/svg+xml</dc:format>
        <dc:type
           rdf:resource="http://purl.org/dc/dcmitype/StillImage" />
        <dc:title />
      </cc:Work>
    </rdf:RDF>
  </metadata>
  <defs
     id="defs3340" />
  <sodipodi:namedview
     pagecolor="#ffffff"
     bordercolor="#666666"
     borderopacity="1"
     objecttolerance="10"
     gridtolerance="10"
     guidetolerance="10"
     inkscape:pageopacity="0"
     inkscape:pageshadow="2"
     inkscape:window-width="1920"
     inkscape:window-height="1018"
     id="namedview3338"
     showgrid="false"
     inkscape:snap-others="true"
     inkscape:snap-bbox="false"
     inkscape:zoom="0.65"
     inkscape:cx="280.18593"
     inkscape:cy="537.57129"
     inkscape:window-x="-8"
     inkscape:window-y="-8"
     inkscape:window-maximized="1"
     inkscape:current-layer="svg3336"
     inkscape:snap-nodes="false"
     inkscape:snap-text-baseline="false"
     inkscape:snap-page="true" />
  <flowRoot
     xml:space="preserve"
     id="flowRoot5040"
     style="font-style:normal;font-weight:normal;font-size:40px;line-height:125%;font-family:sans-serif;letter-spacing:0px;word-spacing:0px;fill:#000000;fill-opacity:1;stroke:none;stroke-width:1px;stroke-linecap:butt;stroke-linejoin:miter;stroke-opacity:1"
     transform="translate(0,-50.00003)"><flowRegion
       id="flowRegion5042"><rect
         id="rect5044"
         width="34.065933"
         height="174.72528"
         x="13.186813"
         y="758.24176" /></flowRegion><flowPara
       id="flowPara5046">wi dddd </flowPara></flowRoot>  <path
     inkscape:connector-curvature="0"
     style="display:inline;fill:#ffffff;fill-opacity:0;stroke:#000000;stroke-width:2.01901484;stroke-linecap:butt;stroke-linejoin:miter;stroke-miterlimit:4;stroke-dasharray:none;stroke-dashoffset:0;stroke-opacity:1"
     id="rect9588-60"
     d="m 7.7477699,21.759836 1233.2805301,0 0,259.985704 -1233.2805301,0 z" />
  <path
     inkscape:connector-curvature="0"
     d="m 8.802703,24.302943 61.91374,0 0,254.674037 -61.91374,0 z"
     id="rect10395-0"
     style="display:inline;fill:#00ff00;fill-opacity:1;stroke:none" />
  <path
     inkscape:connector-curvature="0"
     d="m 1097.0312,109.62993 138.4967,0 0,168.37322 -138.4967,0 z"
     id="rect10395-0-7"
     style="display:inline;fill:#00ff00;fill-opacity:1;stroke:none" />
  <g
     style="font-style:normal;font-weight:normal;font-size:40px;line-height:125%;font-family:sans-serif;letter-spacing:0px;word-spacing:0px;fill:#000000;fill-opacity:1;stroke:none;stroke-width:1px;stroke-linecap:butt;stroke-linejoin:miter;stroke-opacity:1"
     id="text5158">
    <path
       d="m 47.128418,140.45697 -0.341797,1.69922 q -1.054687,0.0195 -2.294922,0.0195 -2.998047,0 -5.3125,-0.12695 -2.304687,-0.12696 -3.769531,-0.87891 -1.455078,-0.76172 -2.34375,-2.09961 -0.996094,1.95313 -2.558594,3.58399 l -1.162109,-1.44532 q 2.90039,-2.98828 3.115234,-7.29492 l 1.884766,0 q -0.136719,1.40625 -0.625,3.28125 1.503906,2.5 4.003906,2.86133 l 0,-7.28516 -8.203125,0 0,-1.64062 7.744141,0 0,-2.13867 -6.376953,0 0,-1.64063 6.376953,0 0,-2.29492 1.855468,0 0,2.29492 6.464844,0 0,1.64063 -6.464844,0 0,2.13867 7.744141,0 0,1.64062 -7.324219,0 0,2.72461 6.16211,0 0,1.67969 -6.16211,0 0,3.11523 q 2.871094,0.18555 5.673828,0.18555 0.976563,0 1.914063,-0.0195 z"
       style="font-style:normal;font-variant:normal;font-weight:bold;font-stretch:normal;font-size:20px;line-height:125%;font-family:'微軟正黑體';-inkscape-font-specification:'微軟正黑體, Bold';text-align:start;writing-mode:lr-tb;text-anchor:start"
       id="path8640" />
    <path
       d="m 34.286621,152.3515 -1.259766,1.20117 q -1.33789,-1.41601 -3.085937,-2.55859 l 1.298828,-1.20117 q 1.621094,1.02539 3.046875,2.55859 z m 5.439453,-1.14258 -1.484375,1.00586 Q 37.187012,151.414 36.122559,150.789 l 1.5625,-0.97656 q 1.220703,0.70312 2.041015,1.39648 z m 5.722656,-0.55664 q -0.947265,0.88867 -2.021484,1.5625 l -1.640625,-0.91797 q 1.162109,-0.72265 1.972656,-1.42578 l 1.689453,0.78125 z m 1.513672,3.30078 -5.615234,0 q -0.400391,0.85938 -0.546875,1.10352 l 5.185547,0 0,9.67773 -10.263672,0 0,-9.67773 3.037109,0 q 0.185547,-0.3125 0.585938,-1.10352 l -4.482422,0 0,-1.62109 12.099609,0 0,1.62109 z m -2.753906,3.83789 0,-1.25976 -6.708984,0 0,1.25976 6.708984,0 z m 0,2.70508 0,-1.2207 -6.708984,0 0,1.2207 6.708984,0 z m 0,2.73438 0,-1.24024 -6.708984,0 0,1.24024 6.708984,0 z m 2.8125,2.40234 -0.537109,1.67969 q -1.40625,0.0293 -2.929688,0.0293 -5.634765,0 -7.607422,-0.40039 -1.972656,-0.4004 -3.378906,-1.78711 -0.996094,1.44531 -1.943359,2.40234 l -1.298828,-1.08398 q 2.558593,-2.78321 3.359375,-5.57618 l -2.958985,0 0,-1.69922 q 1.425781,-1.58203 2.636719,-3.46679 l -2.861328,0 0,-1.69922 4.882812,0 0,1.69922 q -1.044922,1.78711 -2.34375,3.46679 l 2.460938,0 0,1.69922 q -0.429688,1.42578 -1.132813,2.85157 1.09375,1.26953 2.695313,1.61132 1.601562,0.3418 7.246094,0.3418 2.070312,0 3.710937,-0.0684 z"
       style="font-style:normal;font-variant:normal;font-weight:bold;font-stretch:normal;font-size:20px;line-height:125%;font-family:'微軟正黑體';-inkscape-font-specification:'微軟正黑體, Bold';text-align:start;writing-mode:lr-tb;text-anchor:start"
       id="path8642" />
  </g>
  <g
     style="font-style:normal;font-weight:normal;font-size:40px;line-height:125%;font-family:sans-serif;letter-spacing:0px;word-spacing:0px;fill:#000000;fill-opacity:1;stroke:none;stroke-width:1px;stroke-linecap:butt;stroke-linejoin:miter;stroke-opacity:1"
     id="text5164">
    <path
       d="m 1152.5282,207.93719 q 0,1.51368 -1.5527,1.51368 -0.586,0 -1.1426,-0.0391 l -0.6641,-1.69921 q 0.5371,0.0293 0.8106,0.0293 0.6054,0 0.7422,-0.0781 0.1464,-0.0781 0.1464,-0.29297 l 0,-4.55078 q -0.7128,1.00586 -1.2793,1.57226 l -0.5957,-1.2207 q 0,3.88672 -1.0058,6.29883 l -1.377,-1.41602 q 0.7032,-1.98242 0.7032,-4.58008 l 0,-11.14257 5.2148,0 0,15.60546 z m -1.6602,-9.84375 0,-4.10156 -1.875,0 0,2.34375 0.9375,-0.57617 q 0.6641,1.43555 0.9375,2.33398 z m 0,2.11915 0,-1.39649 -1.1132,0.70313 q -0.1954,-0.97657 -0.7618,-2.54883 l 0,5.54687 q 1.2403,-1.34765 1.875,-2.30468 z m 13.3008,2.13867 -1.2597,1.44531 q -1.7774,-2.23633 -4.0137,-4.19922 l 0,7.65625 5.0976,0 0,1.69922 -10.8007,0 0,-1.69922 3.916,0 0,-7.35351 q -1.1426,2.07031 -2.9004,4.01367 l -1.3184,-1.33789 q 3.3496,-3.45703 4.7657,-8.4375 l -4.1993,0 0,-1.71875 10.0977,0 0,1.71875 -4.082,0 -0.5762,1.99218 0,1.32813 q 2.8125,2.1582 5.2734,4.89258 z"
       style="font-style:normal;font-variant:normal;font-weight:bold;font-stretch:normal;font-size:20px;line-height:125%;font-family:'微軟正黑體';-inkscape-font-specification:'微軟正黑體, Bold';text-align:start;writing-mode:lr-tb;text-anchor:start"
       id="path8635" />
    <path
       d="m 1183.993,195.89618 -9.6386,0 q -0.9864,1.76758 -2.5,3.64258 l 3.4765,0 0,-2.53907 1.7969,0 0,2.53907 5.7031,0 0,7.06054 q 0,0.72266 -0.3711,1.16211 -0.3613,0.42969 -0.8496,0.57618 -0.4883,0.14648 -1.7578,0.14648 -0.5859,0 -1.1426,-0.0293 l -0.5761,-1.94336 q 1.0254,0.0684 2.3828,0.0684 0.5176,0 0.5176,-0.46875 l 0,-4.85351 -3.9063,0 0,8.33984 -1.7969,0 0,-8.33984 -3.8769,0 0,7.17773 -1.8457,0 0,-6.73828 q -1.3672,1.05469 -2.1387,1.47461 l -1.0742,-1.47461 q 3.3203,-1.875 5.8203,-5.80078 l -5.6641,0 0,-1.75781 6.6407,0 q 0.4492,-0.74219 1.0644,-2.1875 l 1.7578,0.48828 q -0.332,0.8789 -0.7226,1.69922 l 8.7011,0 0,1.75781 z"
       style="font-style:normal;font-variant:normal;font-weight:bold;font-stretch:normal;font-size:20px;line-height:125%;font-family:'微軟正黑體';-inkscape-font-specification:'微軟正黑體, Bold';text-align:start;writing-mode:lr-tb;text-anchor:start"
       id="path8637" />
  </g>
  <path
     inkscape:connector-curvature="0"
     d="m 112.91776,109.27198 0,169.04978 -41.322703,0 0,-169.04978 z"
     id="rect10465-2-5-7-4-29"
     style="display:inline;opacity:0.63999999;fill:#a7c0de;fill-opacity:1;stroke:none" />
  <path
     inkscape:connector-curvature="0"
     d="m 155.6036,109.27198 0,169.04978 -41.3227,0 0,-169.04978 z"
     id="rect10465-2-5-7-4-29-4"
     style="display:inline;opacity:0.63999999;fill:#a7c0de;fill-opacity:1;stroke:none" />
  <path
     inkscape:connector-curvature="0"
     d="m 198.28944,109.27198 0,169.04978 -41.3227,0 0,-169.04978 z"
     id="rect10465-2-5-7-4-29-2"
     style="display:inline;opacity:0.63999999;fill:#a7c0de;fill-opacity:1;stroke:none" />
  <path
     inkscape:connector-curvature="0"
     d="m 240.97528,109.27198 0,169.04978 -41.3227,0 0,-169.04978 z"
     id="rect10465-2-5-7-4-29-3"
     style="display:inline;opacity:0.63999999;fill:#a7c0de;fill-opacity:1;stroke:none" />
  <path
     inkscape:connector-curvature="0"
     d="m 283.66112,109.27198 0,169.04978 -41.3227,0 0,-169.04978 z"
     id="rect10465-2-5-7-4-29-4-2"
     style="display:inline;opacity:0.63999999;fill:#a7c0de;fill-opacity:1;stroke:none" />
  <path
     inkscape:connector-curvature="0"
     d="m 326.34696,109.27198 0,169.04978 -41.3227,0 0,-169.04978 z"
     id="rect10465-2-5-7-4-29-2-7"
     style="display:inline;opacity:0.63999999;fill:#a7c0de;fill-opacity:1;stroke:none" />
  <path
     inkscape:connector-curvature="0"
     d="m 369.0328,109.27198 0,169.04978 -41.3227,0 0,-169.04978 z"
     id="rect10465-2-5-7-4-29-3-4"
     style="display:inline;opacity:0.63999999;fill:#a7c0de;fill-opacity:1;stroke:none" />
  <path
     inkscape:connector-curvature="0"
     d="m 411.71864,109.27198 0,169.04978 -41.3227,0 0,-169.04978 z"
     id="rect10465-2-5-7-4-29-4-6"
     style="display:inline;opacity:0.63999999;fill:#a7c0de;fill-opacity:1;stroke:none" />
  <path
     inkscape:connector-curvature="0"
     d="m 454.40448,109.27198 0,169.04978 -41.3227,0 0,-169.04978 z"
     id="rect10465-2-5-7-4-29-2-9"
     style="display:inline;opacity:0.63999999;fill:#a7c0de;fill-opacity:1;stroke:none" />
  <path
     inkscape:connector-curvature="0"
     d="m 497.09032,109.27198 0,169.04978 -41.3227,0 0,-169.04978 z"
     id="rect10465-2-5-7-4-29-3-2"
     style="display:inline;opacity:0.63999999;fill:#a7c0de;fill-opacity:1;stroke:none" />
  <path
     inkscape:connector-curvature="0"
     d="m 539.77616,109.27198 0,169.04978 -41.3227,0 0,-169.04978 z"
     id="rect10465-2-5-7-4-29-4-5"
     style="display:inline;opacity:0.63999999;fill:#a7c0de;fill-opacity:1;stroke:none" />
  <path
     inkscape:connector-curvature="0"
     d="m 582.46201,109.27198 0,169.04978 -41.3227,0 0,-169.04978 z"
     id="rect10465-2-5-7-4-29-2-2"
     style="display:inline;opacity:0.63999999;fill:#a7c0de;fill-opacity:1;stroke:none" />
  <path
     inkscape:connector-curvature="0"
     d="m 625.14785,109.27198 0,169.04978 -41.3227,0 0,-169.04978 z"
     id="rect10465-2-5-7-4-29-3-25"
     style="display:inline;opacity:0.63999999;fill:#a7c0de;fill-opacity:1;stroke:none" />
  <path
     inkscape:connector-curvature="0"
     d="m 667.83371,108.95337 0,169.04978 -41.3227,0 0,-169.04978 z"
     id="rect10465-2-5-7-4-29-1"
     style="display:inline;opacity:0.63999999;fill:#a7c0de;fill-opacity:1;stroke:none" />
  <path
     inkscape:connector-curvature="0"
     d="m 710.51955,108.95337 0,169.04978 -41.3227,0 0,-169.04978 z"
     id="rect10465-2-5-7-4-29-4-4"
     style="display:inline;opacity:0.63999999;fill:#a7c0de;fill-opacity:1;stroke:none" />
  <path
     inkscape:connector-curvature="0"
     d="m 753.20539,108.95337 0,169.04978 -41.3227,0 0,-169.04978 z"
     id="rect10465-2-5-7-4-29-2-4"
     style="display:inline;opacity:0.63999999;fill:#a7c0de;fill-opacity:1;stroke:none" />
  <path
     inkscape:connector-curvature="0"
     d="m 795.89123,108.95337 0,169.04978 -41.3227,0 0,-169.04978 z"
     id="rect10465-2-5-7-4-29-3-3"
     style="display:inline;opacity:0.63999999;fill:#a7c0de;fill-opacity:1;stroke:none" />
  <path
     inkscape:connector-curvature="0"
     d="m 838.57708,108.95337 0,169.04978 -41.3227,0 0,-169.04978 z"
     id="rect10465-2-5-7-4-29-4-2-8"
     style="display:inline;opacity:0.63999999;fill:#a7c0de;fill-opacity:1;stroke:none" />
  <path
     inkscape:connector-curvature="0"
     d="m 881.26292,108.95337 0,169.04978 -41.3227,0 0,-169.04978 z"
     id="rect10465-2-5-7-4-29-2-7-6"
     style="display:inline;opacity:0.63999999;fill:#a7c0de;fill-opacity:1;stroke:none" />
  <path
     inkscape:connector-curvature="0"
     d="m 923.94876,108.95337 0,169.04978 -41.3227,0 0,-169.04978 z"
     id="rect10465-2-5-7-4-29-3-4-6"
     style="display:inline;opacity:0.63999999;fill:#a7c0de;fill-opacity:1;stroke:none" />
  <path
     inkscape:connector-curvature="0"
     d="m 966.6346,108.95337 0,169.04978 -41.3227,0 0,-169.04978 z"
     id="rect10465-2-5-7-4-29-4-6-9"
     style="display:inline;opacity:0.63999999;fill:#a7c0de;fill-opacity:1;stroke:none" />
  <path
     inkscape:connector-curvature="0"
     d="m 1009.3204,108.95337 0,169.04978 -41.32272,0 0,-169.04978 z"
     id="rect10465-2-5-7-4-29-2-9-6"
     style="display:inline;opacity:0.63999999;fill:#a7c0de;fill-opacity:1;stroke:none" />
  <path
     inkscape:connector-curvature="0"
     d="m 1052.0063,108.95337 0,169.04978 -41.3227,0 0,-169.04978 z"
     id="rect10465-2-5-7-4-29-3-2-5"
     style="display:inline;opacity:0.63999999;fill:#a7c0de;fill-opacity:1;stroke:none" />
  <path
     inkscape:connector-curvature="0"
     d="m 1094.6921,108.95337 0,169.04978 -41.3227,0 0,-169.04978 z"
     id="rect10465-2-5-7-4-29-4-5-2"
     style="display:inline;opacity:0.63999999;fill:#a7c0de;fill-opacity:1;stroke:none" />
  <g
     transform="matrix(0,-1,1,0,0,0)"
     inkscape:transform-center-x="-80.000014"
     inkscape:transform-center-y="67.692322"
     style="font-style:normal;font-weight:normal;font-size:40px;line-height:125%;font-family:sans-serif;letter-spacing:0px;word-spacing:0px;opacity:0.3;fill:#000000;fill-opacity:1;stroke:none;stroke-width:1px;stroke-linecap:butt;stroke-linejoin:miter;stroke-opacity:1"
     id="text3703-94-7-7">
    <path
       d="m -257.30023,83.555359 q 1.11084,1.220703 1.69678,2.990723 0.59814,1.770019 0.59814,4.016113 0,2.246094 -0.61035,4.02832 -0.59815,1.77002 -1.68457,2.954102 -1.12305,1.23291 -2.66113,1.855468 -1.52588,0.622555 -3.49122,0.622555 -1.9165,0 -3.49121,-0.634762 -1.5625,-0.634765 -2.66113,-1.843261 -1.09863,-1.208496 -1.69678,-2.966309 -0.58593,-1.757812 -0.58593,-4.016113 0,-2.22168 0.58593,-3.979492 0.58594,-1.77002 1.70899,-3.027344 1.07422,-1.196289 2.66113,-1.831055 1.59912,-0.634765 3.479,-0.634765 1.95313,0 3.50342,0.646972 1.5625,0.634766 2.64893,1.818848 z m -0.21973,7.006836 q 0,-3.540039 -1.58691,-5.456543 -1.58692,-1.928711 -4.3335,-1.928711 -2.77099,0 -4.35791,1.928711 -1.57471,1.916504 -1.57471,5.456543 0,3.57666 1.61133,5.480957 1.61133,1.89209 4.32129,1.89209 2.70996,0 4.30908,-1.89209 1.61133,-1.904297 1.61133,-5.480957 z"
       style="font-style:normal;font-variant:normal;font-weight:normal;font-stretch:normal;font-size:25px;line-height:125%;font-family:sans-serif;-inkscape-font-specification:'sans-serif, Normal';text-align:start;writing-mode:lr-tb;text-anchor:start"
       id="path8628" />
    <path
       d="m -240.38129,99.644226 -9.83886,0 0,-1.855469 3.78418,0 0,-12.182617 -3.78418,0 0,-1.660156 q 0.76904,0 1.64795,-0.12207 0.8789,-0.134278 1.33056,-0.378418 0.56153,-0.305176 0.87891,-0.769043 0.32959,-0.476075 0.37842,-1.269532 l 1.89209,0 0,16.381836 3.71093,0 0,1.855469 z"
       style="font-style:normal;font-variant:normal;font-weight:normal;font-stretch:normal;font-size:25px;line-height:125%;font-family:sans-serif;-inkscape-font-specification:'sans-serif, Normal';text-align:start;writing-mode:lr-tb;text-anchor:start"
       id="path8630" />
    <path
       d="m -224.46332,99.644226 -9.83887,0 0,-1.855469 3.78418,0 0,-12.182617 -3.78418,0 0,-1.660156 q 0.76905,0 1.64795,-0.12207 0.87891,-0.134278 1.33057,-0.378418 0.56152,-0.305176 0.87891,-0.769043 0.32959,-0.476075 0.37841,-1.269532 l 1.89209,0 0,16.381836 3.71094,0 0,1.855469 z"
       style="font-style:normal;font-variant:normal;font-weight:normal;font-stretch:normal;font-size:25px;line-height:125%;font-family:sans-serif;-inkscape-font-specification:'sans-serif, Normal';text-align:start;writing-mode:lr-tb;text-anchor:start"
       id="path8632" />
  </g>
  <g
     transform="matrix(0,-1,1,0,0,0)"
     inkscape:transform-center-x="-80.000014"
     inkscape:transform-center-y="67.692322"
     style="font-style:normal;font-weight:normal;font-size:40px;line-height:125%;font-family:sans-serif;letter-spacing:0px;word-spacing:0px;opacity:0.3;fill:#000000;fill-opacity:1;stroke:none;stroke-width:1px;stroke-linecap:butt;stroke-linejoin:miter;stroke-opacity:1"
     id="text3703-94-7-7-5">
    <path
       d="m -257.30023,126.97397 q 1.11084,1.2207 1.69678,2.99072 0.59814,1.77002 0.59814,4.01611 0,2.2461 -0.61035,4.02832 -0.59815,1.77002 -1.68457,2.95411 -1.12305,1.23291 -2.66113,1.85547 -1.52588,0.62255 -3.49122,0.62255 -1.9165,0 -3.49121,-0.63476 -1.5625,-0.63477 -2.66113,-1.84326 -1.09863,-1.2085 -1.69678,-2.96631 -0.58593,-1.75781 -0.58593,-4.01612 0,-2.22168 0.58593,-3.97949 0.58594,-1.77002 1.70899,-3.02734 1.07422,-1.19629 2.66113,-1.83106 1.59912,-0.63476 3.479,-0.63476 1.95313,0 3.50342,0.64697 1.5625,0.63477 2.64893,1.81885 z m -0.21973,7.00683 q 0,-3.54003 -1.58691,-5.45654 -1.58692,-1.92871 -4.3335,-1.92871 -2.77099,0 -4.35791,1.92871 -1.57471,1.91651 -1.57471,5.45654 0,3.57666 1.61133,5.48096 1.61133,1.89209 4.32129,1.89209 2.70996,0 4.30908,-1.89209 1.61133,-1.9043 1.61133,-5.48096 z"
       style="font-style:normal;font-variant:normal;font-weight:normal;font-stretch:normal;font-size:25px;line-height:125%;font-family:sans-serif;-inkscape-font-specification:'sans-serif, Normal';text-align:start;writing-mode:lr-tb;text-anchor:start"
       id="path8621" />
    <path
       d="m -240.38129,143.06284 -9.83886,0 0,-1.85547 3.78418,0 0,-12.18262 -3.78418,0 0,-1.66016 q 0.76904,0 1.64795,-0.12207 0.8789,-0.13427 1.33056,-0.37841 0.56153,-0.30518 0.87891,-0.76905 0.32959,-0.47607 0.37842,-1.26953 l 1.89209,0 0,16.38184 3.71093,0 0,1.85547 z"
       style="font-style:normal;font-variant:normal;font-weight:normal;font-stretch:normal;font-size:25px;line-height:125%;font-family:sans-serif;-inkscape-font-specification:'sans-serif, Normal';text-align:start;writing-mode:lr-tb;text-anchor:start"
       id="path8623" />
    <path
       d="m -223.42572,143.06284 -12.30469,0 0,-2.55127 q 1.28174,-1.09864 2.56348,-2.19727 1.29394,-1.09863 2.40478,-2.18506 2.34375,-2.27051 3.21045,-3.60107 0.8667,-1.34278 0.8667,-2.89307 0,-1.41601 -0.93994,-2.20947 -0.92773,-0.80567 -2.6001,-0.80567 -1.11084,0 -2.40478,0.39063 -1.29395,0.39062 -2.52686,1.19629 l -0.12207,0 0,-2.56348 q 0.8667,-0.42724 2.30713,-0.78125 1.45264,-0.354 2.80762,-0.354 2.79541,0 4.38232,1.35498 1.58692,1.34277 1.58692,3.6499 0,1.0376 -0.26856,1.94092 -0.25635,0.89111 -0.76904,1.69678 -0.47608,0.75683 -1.12305,1.48925 -0.63476,0.73243 -1.55029,1.62354 -1.30615,1.28174 -2.69775,2.49023 -1.39161,1.19629 -2.6001,2.22168 l 9.77783,0 0,2.08741 z"
       style="font-style:normal;font-variant:normal;font-weight:normal;font-stretch:normal;font-size:25px;line-height:125%;font-family:sans-serif;-inkscape-font-specification:'sans-serif, Normal';text-align:start;writing-mode:lr-tb;text-anchor:start"
       id="path8625" />
  </g>
  <g
     transform="matrix(0,-1,1,0,0,0)"
     inkscape:transform-center-x="-80.000014"
     inkscape:transform-center-y="67.692322"
     style="font-style:normal;font-weight:normal;font-size:40px;line-height:125%;font-family:sans-serif;letter-spacing:0px;word-spacing:0px;opacity:0.3;fill:#000000;fill-opacity:1;stroke:none;stroke-width:1px;stroke-linecap:butt;stroke-linejoin:miter;stroke-opacity:1"
     id="text3703-94-7-7-9">
    <path
       d="m -257.30023,170.39258 q 1.11084,1.2207 1.69678,2.99072 0.59814,1.77002 0.59814,4.01611 0,2.2461 -0.61035,4.02832 -0.59815,1.77002 -1.68457,2.95411 -1.12305,1.23291 -2.66113,1.85546 -1.52588,0.62256 -3.49122,0.62256 -1.9165,0 -3.49121,-0.63476 -1.5625,-0.63477 -2.66113,-1.84326 -1.09863,-1.2085 -1.69678,-2.96631 -0.58593,-1.75782 -0.58593,-4.01612 0,-2.22168 0.58593,-3.97949 0.58594,-1.77002 1.70899,-3.02734 1.07422,-1.19629 2.66113,-1.83106 1.59912,-0.63476 3.479,-0.63476 1.95313,0 3.50342,0.64697 1.5625,0.63477 2.64893,1.81885 z m -0.21973,7.00683 q 0,-3.54004 -1.58691,-5.45654 -1.58692,-1.92871 -4.3335,-1.92871 -2.77099,0 -4.35791,1.92871 -1.57471,1.9165 -1.57471,5.45654 0,3.57666 1.61133,5.48096 1.61133,1.89209 4.32129,1.89209 2.70996,0 4.30908,-1.89209 1.61133,-1.9043 1.61133,-5.48096 z"
       style="font-style:normal;font-variant:normal;font-weight:normal;font-stretch:normal;font-size:25px;line-height:125%;font-family:sans-serif;-inkscape-font-specification:'sans-serif, Normal';text-align:start;writing-mode:lr-tb;text-anchor:start"
       id="path8614" />
    <path
       d="m -240.38129,186.48145 -9.83886,0 0,-1.85547 3.78418,0 0,-12.18262 -3.78418,0 0,-1.66016 q 0.76904,0 1.64795,-0.12207 0.8789,-0.13427 1.33056,-0.37842 0.56153,-0.30517 0.87891,-0.76904 0.32959,-0.47607 0.37842,-1.26953 l 1.89209,0 0,16.38184 3.71093,0 0,1.85547 z"
       style="font-style:normal;font-variant:normal;font-weight:normal;font-stretch:normal;font-size:25px;line-height:125%;font-family:sans-serif;-inkscape-font-specification:'sans-serif, Normal';text-align:start;writing-mode:lr-tb;text-anchor:start"
       id="path8616" />
    <path
       d="m -225.02484,177.729 q 0.58594,0.52491 0.96435,1.31836 0.37842,0.79346 0.37842,2.05078 0,1.24512 -0.45166,2.28272 -0.45166,1.0376 -1.26953,1.80664 -0.91553,0.85449 -2.16064,1.26953 -1.23291,0.40283 -2.70996,0.40283 -1.51368,0 -2.97852,-0.36621 -1.46484,-0.354 -2.40479,-0.78125 l 0,-2.55127 0.18311,0 q 1.0376,0.6836 2.44141,1.13526 1.4038,0.45166 2.70996,0.45166 0.76904,0 1.63574,-0.25635 0.8667,-0.25635 1.40381,-0.75684 0.56152,-0.53711 0.83008,-1.18408 0.28076,-0.64697 0.28076,-1.63574 0,-0.97656 -0.31739,-1.61133 -0.30517,-0.64697 -0.85449,-1.01318 -0.54931,-0.37842 -1.33056,-0.5127 -0.78125,-0.14648 -1.68457,-0.14648 l -1.09864,0 0,-2.02637 0.8545,0 q 1.85546,0 2.9541,-0.76904 1.11084,-0.78125 1.11084,-2.27051 0,-0.65918 -0.28076,-1.14746 -0.28077,-0.50049 -0.78125,-0.81787 -0.52491,-0.31739 -1.12305,-0.43946 -0.59815,-0.12207 -1.35498,-0.12207 -1.15967,0 -2.46582,0.41504 -1.30615,0.41504 -2.46582,1.17188 l -0.12207,0 0,-2.55127 q 0.8667,-0.42725 2.30713,-0.78125 1.45263,-0.36621 2.80761,-0.36621 1.33057,0 2.34375,0.24414 1.01319,0.24414 1.83106,0.78125 0.8789,0.58594 1.33056,1.41601 0.45166,0.83008 0.45166,1.94092 0,1.51367 -1.07421,2.64893 -1.06202,1.12304 -2.51465,1.41601 l 0,0.1709 q 0.58593,0.0977 1.34277,0.41504 0.75684,0.30518 1.28174,0.76904 z"
       style="font-style:normal;font-variant:normal;font-weight:normal;font-stretch:normal;font-size:25px;line-height:125%;font-family:sans-serif;-inkscape-font-specification:'sans-serif, Normal';text-align:start;writing-mode:lr-tb;text-anchor:start"
       id="path8618" />
  </g>
  <g
     transform="matrix(0,-1,1,0,0,0)"
     inkscape:transform-center-x="-80.000014"
     inkscape:transform-center-y="67.692322"
     style="font-style:normal;font-weight:normal;font-size:40px;line-height:125%;font-family:sans-serif;letter-spacing:0px;word-spacing:0px;opacity:0.3;fill:#000000;fill-opacity:1;stroke:none;stroke-width:1px;stroke-linecap:butt;stroke-linejoin:miter;stroke-opacity:1"
     id="text3703-94-7-7-4">
    <path
       d="m -257.30023,211.81119 q 1.11084,1.2207 1.69678,2.99072 0.59814,1.77002 0.59814,4.01611 0,2.2461 -0.61035,4.02832 -0.59815,1.77002 -1.68457,2.95411 -1.12305,1.23291 -2.66113,1.85546 -1.52588,0.62256 -3.49122,0.62256 -1.9165,0 -3.49121,-0.63476 -1.5625,-0.63477 -2.66113,-1.84326 -1.09863,-1.2085 -1.69678,-2.96631 -0.58593,-1.75782 -0.58593,-4.01612 0,-2.22168 0.58593,-3.97949 0.58594,-1.77002 1.70899,-3.02734 1.07422,-1.19629 2.66113,-1.83106 1.59912,-0.63476 3.479,-0.63476 1.95313,0 3.50342,0.64697 1.5625,0.63477 2.64893,1.81885 z m -0.21973,7.00683 q 0,-3.54004 -1.58691,-5.45654 -1.58692,-1.92871 -4.3335,-1.92871 -2.77099,0 -4.35791,1.92871 -1.57471,1.9165 -1.57471,5.45654 0,3.57666 1.61133,5.48096 1.61133,1.89209 4.32129,1.89209 2.70996,0 4.30908,-1.89209 1.61133,-1.9043 1.61133,-5.48096 z"
       style="font-style:normal;font-variant:normal;font-weight:normal;font-stretch:normal;font-size:25px;line-height:125%;font-family:sans-serif;-inkscape-font-specification:'sans-serif, Normal';text-align:start;writing-mode:lr-tb;text-anchor:start"
       id="path8607" />
    <path
       d="m -240.38129,227.90005 -9.83886,0 0,-1.85546 3.78418,0 0,-12.18262 -3.78418,0 0,-1.66016 q 0.76904,0 1.64795,-0.12207 0.8789,-0.13427 1.33056,-0.37842 0.56153,-0.30517 0.87891,-0.76904 0.32959,-0.47607 0.37842,-1.26953 l 1.89209,0 0,16.38184 3.71093,0 0,1.85546 z"
       style="font-style:normal;font-variant:normal;font-weight:normal;font-stretch:normal;font-size:25px;line-height:125%;font-family:sans-serif;-inkscape-font-specification:'sans-serif, Normal';text-align:start;writing-mode:lr-tb;text-anchor:start"
       id="path8609" />
    <path
       d="m -223.01068,222.78531 -2.69776,0 0,5.11474 -2.34375,0 0,-5.11474 -8.70361,0 0,-2.80762 8.80127,-10.2539 2.24609,0 0,11.10839 2.69776,0 0,1.95313 z m -5.04151,-1.95313 0,-8.20312 -7.04345,8.20312 7.04345,0 z"
       style="font-style:normal;font-variant:normal;font-weight:normal;font-stretch:normal;font-size:25px;line-height:125%;font-family:sans-serif;-inkscape-font-specification:'sans-serif, Normal';text-align:start;writing-mode:lr-tb;text-anchor:start"
       id="path8611" />
  </g>
  <g
     transform="matrix(0,-1,1,0,0,0)"
     inkscape:transform-center-x="-80.000014"
     inkscape:transform-center-y="67.692322"
     style="font-style:normal;font-weight:normal;font-size:40px;line-height:125%;font-family:sans-serif;letter-spacing:0px;word-spacing:0px;opacity:0.3;fill:#000000;fill-opacity:1;stroke:none;stroke-width:1px;stroke-linecap:butt;stroke-linejoin:miter;stroke-opacity:1"
     id="text3703-94-7-7-90">
    <path
       d="m -257.30023,255.2298 q 1.11084,1.2207 1.69678,2.99072 0.59814,1.77002 0.59814,4.01611 0,2.2461 -0.61035,4.02832 -0.59815,1.77002 -1.68457,2.95411 -1.12305,1.23291 -2.66113,1.85546 -1.52588,0.62256 -3.49122,0.62256 -1.9165,0 -3.49121,-0.63476 -1.5625,-0.63477 -2.66113,-1.84326 -1.09863,-1.2085 -1.69678,-2.96631 -0.58593,-1.75782 -0.58593,-4.01612 0,-2.22168 0.58593,-3.97949 0.58594,-1.77002 1.70899,-3.02734 1.07422,-1.19629 2.66113,-1.83106 1.59912,-0.63476 3.479,-0.63476 1.95313,0 3.50342,0.64697 1.5625,0.63477 2.64893,1.81885 z m -0.21973,7.00683 q 0,-3.54004 -1.58691,-5.45654 -1.58692,-1.92871 -4.3335,-1.92871 -2.77099,0 -4.35791,1.92871 -1.57471,1.9165 -1.57471,5.45654 0,3.57666 1.61133,5.48096 1.61133,1.89209 4.32129,1.89209 2.70996,0 4.30908,-1.89209 1.61133,-1.9043 1.61133,-5.48096 z"
       style="font-style:normal;font-variant:normal;font-weight:normal;font-stretch:normal;font-size:25px;line-height:125%;font-family:sans-serif;-inkscape-font-specification:'sans-serif, Normal';text-align:start;writing-mode:lr-tb;text-anchor:start"
       id="path8600" />
    <path
       d="m -239.34369,271.31866 -12.30469,0 0,-2.55126 q 1.28174,-1.09864 2.56348,-2.19727 1.29395,-1.09863 2.40479,-2.18506 2.34375,-2.27051 3.21044,-3.60107 0.8667,-1.34278 0.8667,-2.89307 0,-1.41602 -0.93994,-2.20947 -0.92773,-0.80567 -2.6001,-0.80567 -1.11084,0 -2.40478,0.39063 -1.29395,0.39062 -2.52686,1.19629 l -0.12207,0 0,-2.56348 q 0.8667,-0.42725 2.30713,-0.78125 1.45264,-0.354 2.80762,-0.354 2.79541,0 4.38232,1.35498 1.58692,1.34277 1.58692,3.6499 0,1.0376 -0.26856,1.94092 -0.25634,0.89111 -0.76904,1.69678 -0.47607,0.75683 -1.12305,1.48925 -0.63476,0.73242 -1.55029,1.62354 -1.30615,1.28174 -2.69775,2.49023 -1.3916,1.19629 -2.6001,2.22168 l 9.77783,0 0,2.0874 z"
       style="font-style:normal;font-variant:normal;font-weight:normal;font-stretch:normal;font-size:25px;line-height:125%;font-family:sans-serif;-inkscape-font-specification:'sans-serif, Normal';text-align:start;writing-mode:lr-tb;text-anchor:start"
       id="path8602" />
    <path
       d="m -224.46332,271.31866 -9.83887,0 0,-1.85546 3.78418,0 0,-12.18262 -3.78418,0 0,-1.66016 q 0.76905,0 1.64795,-0.12207 0.87891,-0.13428 1.33057,-0.37842 0.56152,-0.30517 0.87891,-0.76904 0.32959,-0.47607 0.37841,-1.26953 l 1.89209,0 0,16.38184 3.71094,0 0,1.85546 z"
       style="font-style:normal;font-variant:normal;font-weight:normal;font-stretch:normal;font-size:25px;line-height:125%;font-family:sans-serif;-inkscape-font-specification:'sans-serif, Normal';text-align:start;writing-mode:lr-tb;text-anchor:start"
       id="path8604" />
  </g>
  <g
     transform="matrix(0,-1,1,0,0,0)"
     inkscape:transform-center-x="-80.000014"
     inkscape:transform-center-y="67.692322"
     style="font-style:normal;font-weight:normal;font-size:40px;line-height:125%;font-family:sans-serif;letter-spacing:0px;word-spacing:0px;opacity:0.3;fill:#000000;fill-opacity:1;stroke:none;stroke-width:1px;stroke-linecap:butt;stroke-linejoin:miter;stroke-opacity:1"
     id="text3703-94-7-7-5-4">
    <path
       d="m -257.30023,298.64841 q 1.11084,1.2207 1.69678,2.99072 0.59814,1.77002 0.59814,4.01611 0,2.2461 -0.61035,4.02832 -0.59815,1.77002 -1.68457,2.9541 -1.12305,1.23291 -2.66113,1.85547 -1.52588,0.62256 -3.49122,0.62256 -1.9165,0 -3.49121,-0.63476 -1.5625,-0.63477 -2.66113,-1.84327 -1.09863,-1.20849 -1.69678,-2.9663 -0.58593,-1.75782 -0.58593,-4.01612 0,-2.22168 0.58593,-3.97949 0.58594,-1.77002 1.70899,-3.02734 1.07422,-1.19629 2.66113,-1.83106 1.59912,-0.63476 3.479,-0.63476 1.95313,0 3.50342,0.64697 1.5625,0.63476 2.64893,1.81885 z m -0.21973,7.00683 q 0,-3.54004 -1.58691,-5.45654 -1.58692,-1.92871 -4.3335,-1.92871 -2.77099,0 -4.35791,1.92871 -1.57471,1.9165 -1.57471,5.45654 0,3.57666 1.61133,5.48096 1.61133,1.89209 4.32129,1.89209 2.70996,0 4.30908,-1.89209 1.61133,-1.9043 1.61133,-5.48096 z"
       style="font-style:normal;font-variant:normal;font-weight:normal;font-stretch:normal;font-size:25px;line-height:125%;font-family:sans-serif;-inkscape-font-specification:'sans-serif, Normal';text-align:start;writing-mode:lr-tb;text-anchor:start"
       id="path8593" />
    <path
       d="m -239.34369,314.73727 -12.30469,0 0,-2.55127 q 1.28174,-1.09863 2.56348,-2.19726 1.29395,-1.09863 2.40479,-2.18506 2.34375,-2.27051 3.21044,-3.60107 0.8667,-1.34278 0.8667,-2.89307 0,-1.41602 -0.93994,-2.20947 -0.92773,-0.80567 -2.6001,-0.80567 -1.11084,0 -2.40478,0.39063 -1.29395,0.39062 -2.52686,1.19629 l -0.12207,0 0,-2.56348 q 0.8667,-0.42725 2.30713,-0.78125 1.45264,-0.354 2.80762,-0.354 2.79541,0 4.38232,1.35498 1.58692,1.34277 1.58692,3.6499 0,1.0376 -0.26856,1.94092 -0.25634,0.89111 -0.76904,1.69677 -0.47607,0.75684 -1.12305,1.48926 -0.63476,0.73242 -1.55029,1.62354 -1.30615,1.28174 -2.69775,2.49023 -1.3916,1.19629 -2.6001,2.22168 l 9.77783,0 0,2.0874 z"
       style="font-style:normal;font-variant:normal;font-weight:normal;font-stretch:normal;font-size:25px;line-height:125%;font-family:sans-serif;-inkscape-font-specification:'sans-serif, Normal';text-align:start;writing-mode:lr-tb;text-anchor:start"
       id="path8595" />
    <path
       d="m -223.42572,314.73727 -12.30469,0 0,-2.55127 q 1.28174,-1.09863 2.56348,-2.19726 1.29394,-1.09863 2.40478,-2.18506 2.34375,-2.27051 3.21045,-3.60107 0.8667,-1.34278 0.8667,-2.89307 0,-1.41602 -0.93994,-2.20947 -0.92773,-0.80567 -2.6001,-0.80567 -1.11084,0 -2.40478,0.39063 -1.29395,0.39062 -2.52686,1.19629 l -0.12207,0 0,-2.56348 q 0.8667,-0.42725 2.30713,-0.78125 1.45264,-0.354 2.80762,-0.354 2.79541,0 4.38232,1.35498 1.58692,1.34277 1.58692,3.6499 0,1.0376 -0.26856,1.94092 -0.25635,0.89111 -0.76904,1.69677 -0.47608,0.75684 -1.12305,1.48926 -0.63476,0.73242 -1.55029,1.62354 -1.30615,1.28174 -2.69775,2.49023 -1.39161,1.19629 -2.6001,2.22168 l 9.77783,0 0,2.0874 z"
       style="font-style:normal;font-variant:normal;font-weight:normal;font-stretch:normal;font-size:25px;line-height:125%;font-family:sans-serif;-inkscape-font-specification:'sans-serif, Normal';text-align:start;writing-mode:lr-tb;text-anchor:start"
       id="path8597" />
  </g>
  <g
     transform="matrix(0,-1,1,0,0,0)"
     inkscape:transform-center-x="-80.000014"
     inkscape:transform-center-y="67.692322"
     style="font-style:normal;font-weight:normal;font-size:40px;line-height:125%;font-family:sans-serif;letter-spacing:0px;word-spacing:0px;opacity:0.3;fill:#000000;fill-opacity:1;stroke:none;stroke-width:1px;stroke-linecap:butt;stroke-linejoin:miter;stroke-opacity:1"
     id="text3703-94-7-7-9-7">
    <path
       d="m -257.30023,342.06702 q 1.11084,1.2207 1.69678,2.99072 0.59814,1.77002 0.59814,4.01611 0,2.2461 -0.61035,4.02832 -0.59815,1.77002 -1.68457,2.9541 -1.12305,1.23291 -2.66113,1.85547 -1.52588,0.62256 -3.49122,0.62256 -1.9165,0 -3.49121,-0.63476 -1.5625,-0.63477 -2.66113,-1.84327 -1.09863,-1.20849 -1.69678,-2.9663 -0.58593,-1.75782 -0.58593,-4.01612 0,-2.22168 0.58593,-3.97949 0.58594,-1.77002 1.70899,-3.02734 1.07422,-1.19629 2.66113,-1.83106 1.59912,-0.63476 3.479,-0.63476 1.95313,0 3.50342,0.64697 1.5625,0.63476 2.64893,1.81885 z m -0.21973,7.00683 q 0,-3.54004 -1.58691,-5.45654 -1.58692,-1.92871 -4.3335,-1.92871 -2.77099,0 -4.35791,1.92871 -1.57471,1.9165 -1.57471,5.45654 0,3.57666 1.61133,5.48096 1.61133,1.89209 4.32129,1.89209 2.70996,0 4.30908,-1.89209 1.61133,-1.9043 1.61133,-5.48096 z"
       style="font-style:normal;font-variant:normal;font-weight:normal;font-stretch:normal;font-size:25px;line-height:125%;font-family:sans-serif;-inkscape-font-specification:'sans-serif, Normal';text-align:start;writing-mode:lr-tb;text-anchor:start"
       id="path8586" />
    <path
       d="m -239.34369,358.15588 -12.30469,0 0,-2.55127 q 1.28174,-1.09863 2.56348,-2.19726 1.29395,-1.09863 2.40479,-2.18506 2.34375,-2.27051 3.21044,-3.60107 0.8667,-1.34278 0.8667,-2.89307 0,-1.41602 -0.93994,-2.20947 -0.92773,-0.80567 -2.6001,-0.80567 -1.11084,0 -2.40478,0.39063 -1.29395,0.39062 -2.52686,1.19629 l -0.12207,0 0,-2.56348 q 0.8667,-0.42725 2.30713,-0.78125 1.45264,-0.354 2.80762,-0.354 2.79541,0 4.38232,1.35498 1.58692,1.34277 1.58692,3.6499 0,1.0376 -0.26856,1.94092 -0.25634,0.89111 -0.76904,1.69677 -0.47607,0.75684 -1.12305,1.48926 -0.63476,0.73242 -1.55029,1.62354 -1.30615,1.28174 -2.69775,2.49023 -1.3916,1.19629 -2.6001,2.22168 l 9.77783,0 0,2.0874 z"
       style="font-style:normal;font-variant:normal;font-weight:normal;font-stretch:normal;font-size:25px;line-height:125%;font-family:sans-serif;-inkscape-font-specification:'sans-serif, Normal';text-align:start;writing-mode:lr-tb;text-anchor:start"
       id="path8588" />
    <path
       d="m -225.02484,349.40344 q 0.58594,0.5249 0.96435,1.31836 0.37842,0.79346 0.37842,2.05078 0,1.24512 -0.45166,2.28272 -0.45166,1.0376 -1.26953,1.80664 -0.91553,0.85449 -2.16064,1.26953 -1.23291,0.40283 -2.70996,0.40283 -1.51368,0 -2.97852,-0.36621 -1.46484,-0.354 -2.40479,-0.78125 l 0,-2.55127 0.18311,0 q 1.0376,0.6836 2.44141,1.13526 1.4038,0.45166 2.70996,0.45166 0.76904,0 1.63574,-0.25635 0.8667,-0.25635 1.40381,-0.75684 0.56152,-0.53711 0.83008,-1.18408 0.28076,-0.64697 0.28076,-1.63574 0,-0.97656 -0.31739,-1.61133 -0.30517,-0.64697 -0.85449,-1.01318 -0.54931,-0.37842 -1.33056,-0.5127 -0.78125,-0.14648 -1.68457,-0.14648 l -1.09864,0 0,-2.02637 0.8545,0 q 1.85546,0 2.9541,-0.76904 1.11084,-0.78125 1.11084,-2.27051 0,-0.65918 -0.28076,-1.14746 -0.28077,-0.50049 -0.78125,-0.81787 -0.52491,-0.31739 -1.12305,-0.43946 -0.59815,-0.12207 -1.35498,-0.12207 -1.15967,0 -2.46582,0.41504 -1.30615,0.41504 -2.46582,1.17188 l -0.12207,0 0,-2.55127 q 0.8667,-0.42725 2.30713,-0.78125 1.45263,-0.36621 2.80761,-0.36621 1.33057,0 2.34375,0.24414 1.01319,0.24414 1.83106,0.78125 0.8789,0.58593 1.33056,1.41601 0.45166,0.83008 0.45166,1.94092 0,1.51367 -1.07421,2.64893 -1.06202,1.12304 -2.51465,1.41601 l 0,0.1709 q 0.58593,0.0977 1.34277,0.41504 0.75684,0.30518 1.28174,0.76904 z"
       style="font-style:normal;font-variant:normal;font-weight:normal;font-stretch:normal;font-size:25px;line-height:125%;font-family:sans-serif;-inkscape-font-specification:'sans-serif, Normal';text-align:start;writing-mode:lr-tb;text-anchor:start"
       id="path8590" />
  </g>
  <g
     transform="matrix(0,-1,1,0,0,0)"
     inkscape:transform-center-x="-80.000014"
     inkscape:transform-center-y="67.692322"
     style="font-style:normal;font-weight:normal;font-size:40px;line-height:125%;font-family:sans-serif;letter-spacing:0px;word-spacing:0px;opacity:0.3;fill:#000000;fill-opacity:1;stroke:none;stroke-width:1px;stroke-linecap:butt;stroke-linejoin:miter;stroke-opacity:1"
     id="text3703-94-7-7-4-1">
    <path
       d="m -257.30023,385.48563 q 1.11084,1.2207 1.69678,2.99072 0.59814,1.77002 0.59814,4.01611 0,2.2461 -0.61035,4.02832 -0.59815,1.77002 -1.68457,2.9541 -1.12305,1.23291 -2.66113,1.85547 -1.52588,0.62256 -3.49122,0.62256 -1.9165,0 -3.49121,-0.63476 -1.5625,-0.63477 -2.66113,-1.84327 -1.09863,-1.20849 -1.69678,-2.9663 -0.58593,-1.75782 -0.58593,-4.01612 0,-2.22168 0.58593,-3.97949 0.58594,-1.77002 1.70899,-3.02734 1.07422,-1.19629 2.66113,-1.83106 1.59912,-0.63476 3.479,-0.63476 1.95313,0 3.50342,0.64697 1.5625,0.63476 2.64893,1.81885 z m -0.21973,7.00683 q 0,-3.54004 -1.58691,-5.45654 -1.58692,-1.92871 -4.3335,-1.92871 -2.77099,0 -4.35791,1.92871 -1.57471,1.9165 -1.57471,5.45654 0,3.57666 1.61133,5.48096 1.61133,1.89209 4.32129,1.89209 2.70996,0 4.30908,-1.89209 1.61133,-1.9043 1.61133,-5.48096 z"
       style="font-style:normal;font-variant:normal;font-weight:normal;font-stretch:normal;font-size:25px;line-height:125%;font-family:sans-serif;-inkscape-font-specification:'sans-serif, Normal';text-align:start;writing-mode:lr-tb;text-anchor:start"
       id="path8579" />
    <path
       d="m -239.34369,401.57449 -12.30469,0 0,-2.55127 q 1.28174,-1.09863 2.56348,-2.19726 1.29395,-1.09863 2.40479,-2.18506 2.34375,-2.27051 3.21044,-3.60107 0.8667,-1.34278 0.8667,-2.89307 0,-1.41602 -0.93994,-2.20947 -0.92773,-0.80567 -2.6001,-0.80567 -1.11084,0 -2.40478,0.39063 -1.29395,0.39062 -2.52686,1.19629 l -0.12207,0 0,-2.56348 q 0.8667,-0.42725 2.30713,-0.78125 1.45264,-0.354 2.80762,-0.354 2.79541,0 4.38232,1.35498 1.58692,1.34277 1.58692,3.6499 0,1.0376 -0.26856,1.94092 -0.25634,0.89111 -0.76904,1.69677 -0.47607,0.75684 -1.12305,1.48926 -0.63476,0.73242 -1.55029,1.62354 -1.30615,1.28174 -2.69775,2.49023 -1.3916,1.19629 -2.6001,2.22168 l 9.77783,0 0,2.0874 z"
       style="font-style:normal;font-variant:normal;font-weight:normal;font-stretch:normal;font-size:25px;line-height:125%;font-family:sans-serif;-inkscape-font-specification:'sans-serif, Normal';text-align:start;writing-mode:lr-tb;text-anchor:start"
       id="path8581" />
    <path
       d="m -223.01068,396.45975 -2.69776,0 0,5.11474 -2.34375,0 0,-5.11474 -8.70361,0 0,-2.80762 8.80127,-10.25391 2.24609,0 0,11.1084 2.69776,0 0,1.95313 z m -5.04151,-1.95313 0,-8.20312 -7.04345,8.20312 7.04345,0 z"
       style="font-style:normal;font-variant:normal;font-weight:normal;font-stretch:normal;font-size:25px;line-height:125%;font-family:sans-serif;-inkscape-font-specification:'sans-serif, Normal';text-align:start;writing-mode:lr-tb;text-anchor:start"
       id="path8583" />
  </g>
  <g
     transform="matrix(0,-1,1,0,0,0)"
     inkscape:transform-center-x="-80.000014"
     inkscape:transform-center-y="67.692322"
     style="font-style:normal;font-weight:normal;font-size:40px;line-height:125%;font-family:sans-serif;letter-spacing:0px;word-spacing:0px;opacity:0.3;fill:#000000;fill-opacity:1;stroke:none;stroke-width:1px;stroke-linecap:butt;stroke-linejoin:miter;stroke-opacity:1"
     id="text3703-94-7-7-1">
    <path
       d="m -257.30023,468.90424 q 1.11084,1.2207 1.69678,2.99072 0.59814,1.77002 0.59814,4.01611 0,2.2461 -0.61035,4.02832 -0.59815,1.77002 -1.68457,2.9541 -1.12305,1.23291 -2.66113,1.85547 -1.52588,0.62256 -3.49122,0.62256 -1.9165,0 -3.49121,-0.63476 -1.5625,-0.63477 -2.66113,-1.84327 -1.09863,-1.20849 -1.69678,-2.9663 -0.58593,-1.75782 -0.58593,-4.01612 0,-2.22168 0.58593,-3.97949 0.58594,-1.77002 1.70899,-3.02734 1.07422,-1.19629 2.66113,-1.83106 1.59912,-0.63476 3.479,-0.63476 1.95313,0 3.50342,0.64697 1.5625,0.63476 2.64893,1.81885 z m -0.21973,7.00683 q 0,-3.54004 -1.58691,-5.45654 -1.58692,-1.92871 -4.3335,-1.92871 -2.77099,0 -4.35791,1.92871 -1.57471,1.9165 -1.57471,5.45654 0,3.57666 1.61133,5.48096 1.61133,1.89209 4.32129,1.89209 2.70996,0 4.30908,-1.89209 1.61133,-1.9043 1.61133,-5.48096 z"
       style="font-style:normal;font-variant:normal;font-weight:normal;font-stretch:normal;font-size:25px;line-height:125%;font-family:sans-serif;-inkscape-font-specification:'sans-serif, Normal';text-align:start;writing-mode:lr-tb;text-anchor:start"
       id="path8572" />
    <path
       d="m -240.94281,476.24066 q 0.58594,0.5249 0.96436,1.31836 0.37841,0.79346 0.37841,2.05078 0,1.24512 -0.45166,2.28272 -0.45166,1.03759 -1.26953,1.80664 -0.91553,0.85449 -2.16064,1.26953 -1.23291,0.40283 -2.70996,0.40283 -1.51368,0 -2.97852,-0.36621 -1.46484,-0.354 -2.40478,-0.78125 l 0,-2.55127 0.1831,0 q 1.0376,0.68359 2.44141,1.13525 1.40381,0.45166 2.70996,0.45166 0.76904,0 1.63574,-0.25634 0.8667,-0.25635 1.40381,-0.75684 0.56152,-0.53711 0.83008,-1.18408 0.28076,-0.64697 0.28076,-1.63574 0,-0.97657 -0.31738,-1.61133 -0.30518,-0.64697 -0.8545,-1.01318 -0.54931,-0.37842 -1.33056,-0.5127 -0.78125,-0.14648 -1.68457,-0.14648 l -1.09864,0 0,-2.02637 0.8545,0 q 1.85547,0 2.9541,-0.76904 1.11084,-0.78125 1.11084,-2.27051 0,-0.65918 -0.28076,-1.14746 -0.28077,-0.50049 -0.78125,-0.81787 -0.52491,-0.31739 -1.12305,-0.43946 -0.59815,-0.12207 -1.35498,-0.12207 -1.15967,0 -2.46582,0.41504 -1.30615,0.41504 -2.46582,1.17188 l -0.12207,0 0,-2.55127 q 0.8667,-0.42725 2.30713,-0.78125 1.45263,-0.36621 2.80761,-0.36621 1.33057,0 2.34375,0.24414 1.01319,0.24414 1.83106,0.78125 0.87891,0.58593 1.33057,1.41601 0.45166,0.83008 0.45166,1.94092 0,1.51367 -1.07422,2.64893 -1.06202,1.12304 -2.51465,1.41601 l 0,0.1709 q 0.58594,0.0977 1.34277,0.41504 0.75684,0.30517 1.28174,0.76904 z"
       style="font-style:normal;font-variant:normal;font-weight:normal;font-stretch:normal;font-size:25px;line-height:125%;font-family:sans-serif;-inkscape-font-specification:'sans-serif, Normal';text-align:start;writing-mode:lr-tb;text-anchor:start"
       id="path8574" />
    <path
       d="m -224.46332,484.9931 -9.83887,0 0,-1.85547 3.78418,0 0,-12.18261 -3.78418,0 0,-1.66016 q 0.76905,0 1.64795,-0.12207 0.87891,-0.13428 1.33057,-0.37842 0.56152,-0.30517 0.87891,-0.76904 0.32959,-0.47607 0.37841,-1.26953 l 1.89209,0 0,16.38183 3.71094,0 0,1.85547 z"
       style="font-style:normal;font-variant:normal;font-weight:normal;font-stretch:normal;font-size:25px;line-height:125%;font-family:sans-serif;-inkscape-font-specification:'sans-serif, Normal';text-align:start;writing-mode:lr-tb;text-anchor:start"
       id="path8576" />
  </g>
  <g
     transform="matrix(0,-1,1,0,0,0)"
     inkscape:transform-center-x="-80.000014"
     inkscape:transform-center-y="67.692322"
     style="font-style:normal;font-weight:normal;font-size:40px;line-height:125%;font-family:sans-serif;letter-spacing:0px;word-spacing:0px;opacity:0.3;fill:#000000;fill-opacity:1;stroke:none;stroke-width:1px;stroke-linecap:butt;stroke-linejoin:miter;stroke-opacity:1"
     id="text3703-94-7-7-5-45">
    <path
       d="m -257.30023,512.32288 q 1.11084,1.2207 1.69678,2.99072 0.59814,1.77002 0.59814,4.01611 0,2.2461 -0.61035,4.02832 -0.59815,1.77002 -1.68457,2.9541 -1.12305,1.23291 -2.66113,1.85547 -1.52588,0.62256 -3.49122,0.62256 -1.9165,0 -3.49121,-0.63476 -1.5625,-0.63477 -2.66113,-1.84327 -1.09863,-1.20849 -1.69678,-2.9663 -0.58593,-1.75782 -0.58593,-4.01612 0,-2.22168 0.58593,-3.97949 0.58594,-1.77002 1.70899,-3.02734 1.07422,-1.19629 2.66113,-1.83106 1.59912,-0.63476 3.479,-0.63476 1.95313,0 3.50342,0.64697 1.5625,0.63476 2.64893,1.81885 z m -0.21973,7.00683 q 0,-3.54004 -1.58691,-5.45654 -1.58692,-1.92871 -4.3335,-1.92871 -2.77099,0 -4.35791,1.92871 -1.57471,1.9165 -1.57471,5.45654 0,3.57666 1.61133,5.48096 1.61133,1.89209 4.32129,1.89209 2.70996,0 4.30908,-1.89209 1.61133,-1.9043 1.61133,-5.48096 z"
       style="font-style:normal;font-variant:normal;font-weight:normal;font-stretch:normal;font-size:25px;line-height:125%;font-family:sans-serif;-inkscape-font-specification:'sans-serif, Normal';text-align:start;writing-mode:lr-tb;text-anchor:start"
       id="path8565" />
    <path
       d="m -240.94281,519.6593 q 0.58594,0.5249 0.96436,1.31836 0.37841,0.79346 0.37841,2.05078 0,1.24512 -0.45166,2.28272 -0.45166,1.03759 -1.26953,1.80664 -0.91553,0.85449 -2.16064,1.26953 -1.23291,0.40283 -2.70996,0.40283 -1.51368,0 -2.97852,-0.36621 -1.46484,-0.354 -2.40478,-0.78125 l 0,-2.55127 0.1831,0 q 1.0376,0.68359 2.44141,1.13525 1.40381,0.45166 2.70996,0.45166 0.76904,0 1.63574,-0.25634 0.8667,-0.25635 1.40381,-0.75684 0.56152,-0.53711 0.83008,-1.18408 0.28076,-0.64697 0.28076,-1.63574 0,-0.97657 -0.31738,-1.61133 -0.30518,-0.64697 -0.8545,-1.01318 -0.54931,-0.37842 -1.33056,-0.5127 -0.78125,-0.14648 -1.68457,-0.14648 l -1.09864,0 0,-2.02637 0.8545,0 q 1.85547,0 2.9541,-0.76904 1.11084,-0.78125 1.11084,-2.27051 0,-0.65918 -0.28076,-1.14746 -0.28077,-0.50049 -0.78125,-0.81787 -0.52491,-0.31739 -1.12305,-0.43946 -0.59815,-0.12207 -1.35498,-0.12207 -1.15967,0 -2.46582,0.41504 -1.30615,0.41504 -2.46582,1.17188 l -0.12207,0 0,-2.55127 q 0.8667,-0.42725 2.30713,-0.78125 1.45263,-0.36621 2.80761,-0.36621 1.33057,0 2.34375,0.24414 1.01319,0.24414 1.83106,0.78125 0.87891,0.58593 1.33057,1.41601 0.45166,0.83008 0.45166,1.94092 0,1.51367 -1.07422,2.64893 -1.06202,1.12304 -2.51465,1.41601 l 0,0.1709 q 0.58594,0.0977 1.34277,0.41504 0.75684,0.30517 1.28174,0.76904 z"
       style="font-style:normal;font-variant:normal;font-weight:normal;font-stretch:normal;font-size:25px;line-height:125%;font-family:sans-serif;-inkscape-font-specification:'sans-serif, Normal';text-align:start;writing-mode:lr-tb;text-anchor:start"
       id="path8567" />
    <path
       d="m -223.42572,528.41174 -12.30469,0 0,-2.55127 q 1.28174,-1.09863 2.56348,-2.19726 1.29394,-1.09863 2.40478,-2.18506 2.34375,-2.27051 3.21045,-3.60107 0.8667,-1.34278 0.8667,-2.89307 0,-1.41602 -0.93994,-2.20947 -0.92773,-0.80567 -2.6001,-0.80567 -1.11084,0 -2.40478,0.39063 -1.29395,0.39062 -2.52686,1.19629 l -0.12207,0 0,-2.56348 q 0.8667,-0.42725 2.30713,-0.78125 1.45264,-0.354 2.80762,-0.354 2.79541,0 4.38232,1.35498 1.58692,1.34277 1.58692,3.6499 0,1.0376 -0.26856,1.94092 -0.25635,0.89111 -0.76904,1.69677 -0.47608,0.75684 -1.12305,1.48926 -0.63476,0.73242 -1.55029,1.62354 -1.30615,1.28174 -2.69775,2.49023 -1.39161,1.19629 -2.6001,2.22168 l 9.77783,0 0,2.0874 z"
       style="font-style:normal;font-variant:normal;font-weight:normal;font-stretch:normal;font-size:25px;line-height:125%;font-family:sans-serif;-inkscape-font-specification:'sans-serif, Normal';text-align:start;writing-mode:lr-tb;text-anchor:start"
       id="path8569" />
  </g>
  <g
     transform="matrix(0,-1,1,0,0,0)"
     inkscape:transform-center-x="-80.000014"
     inkscape:transform-center-y="67.692322"
     style="font-style:normal;font-weight:normal;font-size:40px;line-height:125%;font-family:sans-serif;letter-spacing:0px;word-spacing:0px;opacity:0.3;fill:#000000;fill-opacity:1;stroke:none;stroke-width:1px;stroke-linecap:butt;stroke-linejoin:miter;stroke-opacity:1"
     id="text3703-94-7-7-9-73">
    <path
       d="m -257.30023,555.74146 q 1.11084,1.2207 1.69678,2.99072 0.59814,1.77002 0.59814,4.01611 0,2.24609 -0.61035,4.02832 -0.59815,1.77002 -1.68457,2.9541 -1.12305,1.23291 -2.66113,1.85547 -1.52588,0.62256 -3.49122,0.62256 -1.9165,0 -3.49121,-0.63477 -1.5625,-0.63476 -2.66113,-1.84326 -1.09863,-1.20849 -1.69678,-2.96631 -0.58593,-1.75781 -0.58593,-4.01611 0,-2.22168 0.58593,-3.97949 0.58594,-1.77002 1.70899,-3.02734 1.07422,-1.19629 2.66113,-1.83106 1.59912,-0.63477 3.479,-0.63477 1.95313,0 3.50342,0.64698 1.5625,0.63476 2.64893,1.81885 z m -0.21973,7.00683 q 0,-3.54004 -1.58691,-5.45654 -1.58692,-1.92871 -4.3335,-1.92871 -2.77099,0 -4.35791,1.92871 -1.57471,1.9165 -1.57471,5.45654 0,3.57666 1.61133,5.48096 1.61133,1.89209 4.32129,1.89209 2.70996,0 4.30908,-1.89209 1.61133,-1.9043 1.61133,-5.48096 z"
       style="font-style:normal;font-variant:normal;font-weight:normal;font-stretch:normal;font-size:25px;line-height:125%;font-family:sans-serif;-inkscape-font-specification:'sans-serif, Normal';text-align:start;writing-mode:lr-tb;text-anchor:start"
       id="path8558" />
    <path
       d="m -240.94281,563.07788 q 0.58594,0.5249 0.96436,1.31836 0.37841,0.79346 0.37841,2.05078 0,1.24512 -0.45166,2.28272 -0.45166,1.03759 -1.26953,1.80664 -0.91553,0.85449 -2.16064,1.26953 -1.23291,0.40283 -2.70996,0.40283 -1.51368,0 -2.97852,-0.36621 -1.46484,-0.354 -2.40478,-0.78125 l 0,-2.55127 0.1831,0 q 1.0376,0.68359 2.44141,1.13525 1.40381,0.45166 2.70996,0.45166 0.76904,0 1.63574,-0.25634 0.8667,-0.25635 1.40381,-0.75684 0.56152,-0.53711 0.83008,-1.18408 0.28076,-0.64697 0.28076,-1.63574 0,-0.97657 -0.31738,-1.61133 -0.30518,-0.64697 -0.8545,-1.01319 -0.54931,-0.37841 -1.33056,-0.51269 -0.78125,-0.14649 -1.68457,-0.14649 l -1.09864,0 0,-2.02636 0.8545,0 q 1.85547,0 2.9541,-0.76905 1.11084,-0.78125 1.11084,-2.2705 0,-0.65918 -0.28076,-1.14746 -0.28077,-0.50049 -0.78125,-0.81788 -0.52491,-0.31738 -1.12305,-0.43945 -0.59815,-0.12207 -1.35498,-0.12207 -1.15967,0 -2.46582,0.41504 -1.30615,0.41504 -2.46582,1.17188 l -0.12207,0 0,-2.55127 q 0.8667,-0.42725 2.30713,-0.78125 1.45263,-0.36622 2.80761,-0.36622 1.33057,0 2.34375,0.24415 1.01319,0.24414 1.83106,0.78125 0.87891,0.58593 1.33057,1.41601 0.45166,0.83008 0.45166,1.94092 0,1.51367 -1.07422,2.64892 -1.06202,1.12305 -2.51465,1.41602 l 0,0.1709 q 0.58594,0.0977 1.34277,0.41504 0.75684,0.30517 1.28174,0.76904 z"
       style="font-style:normal;font-variant:normal;font-weight:normal;font-stretch:normal;font-size:25px;line-height:125%;font-family:sans-serif;-inkscape-font-specification:'sans-serif, Normal';text-align:start;writing-mode:lr-tb;text-anchor:start"
       id="path8560" />
    <path
       d="m -225.02484,563.07788 q 0.58594,0.5249 0.96435,1.31836 0.37842,0.79346 0.37842,2.05078 0,1.24512 -0.45166,2.28272 -0.45166,1.03759 -1.26953,1.80664 -0.91553,0.85449 -2.16064,1.26953 -1.23291,0.40283 -2.70996,0.40283 -1.51368,0 -2.97852,-0.36621 -1.46484,-0.354 -2.40479,-0.78125 l 0,-2.55127 0.18311,0 q 1.0376,0.68359 2.44141,1.13525 1.4038,0.45166 2.70996,0.45166 0.76904,0 1.63574,-0.25634 0.8667,-0.25635 1.40381,-0.75684 0.56152,-0.53711 0.83008,-1.18408 0.28076,-0.64697 0.28076,-1.63574 0,-0.97657 -0.31739,-1.61133 -0.30517,-0.64697 -0.85449,-1.01319 -0.54931,-0.37841 -1.33056,-0.51269 -0.78125,-0.14649 -1.68457,-0.14649 l -1.09864,0 0,-2.02636 0.8545,0 q 1.85546,0 2.9541,-0.76905 1.11084,-0.78125 1.11084,-2.2705 0,-0.65918 -0.28076,-1.14746 -0.28077,-0.50049 -0.78125,-0.81788 -0.52491,-0.31738 -1.12305,-0.43945 -0.59815,-0.12207 -1.35498,-0.12207 -1.15967,0 -2.46582,0.41504 -1.30615,0.41504 -2.46582,1.17188 l -0.12207,0 0,-2.55127 q 0.8667,-0.42725 2.30713,-0.78125 1.45263,-0.36622 2.80761,-0.36622 1.33057,0 2.34375,0.24415 1.01319,0.24414 1.83106,0.78125 0.8789,0.58593 1.33056,1.41601 0.45166,0.83008 0.45166,1.94092 0,1.51367 -1.07421,2.64892 -1.06202,1.12305 -2.51465,1.41602 l 0,0.1709 q 0.58593,0.0977 1.34277,0.41504 0.75684,0.30517 1.28174,0.76904 z"
       style="font-style:normal;font-variant:normal;font-weight:normal;font-stretch:normal;font-size:25px;line-height:125%;font-family:sans-serif;-inkscape-font-specification:'sans-serif, Normal';text-align:start;writing-mode:lr-tb;text-anchor:start"
       id="path8562" />
  </g>
  <g
     transform="matrix(0,-1,1,0,0,0)"
     inkscape:transform-center-x="-80.000014"
     inkscape:transform-center-y="67.692322"
     style="font-style:normal;font-weight:normal;font-size:40px;line-height:125%;font-family:sans-serif;letter-spacing:0px;word-spacing:0px;opacity:0.3;fill:#000000;fill-opacity:1;stroke:none;stroke-width:1px;stroke-linecap:butt;stroke-linejoin:miter;stroke-opacity:1"
     id="text3703-94-7-7-98">
    <path
       d="m -257.30023,599.16003 q 1.11084,1.22071 1.69678,2.99073 0.59814,1.77002 0.59814,4.01611 0,2.24609 -0.61035,4.02832 -0.59815,1.77002 -1.68457,2.9541 -1.12305,1.23291 -2.66113,1.85547 -1.52588,0.62256 -3.49122,0.62256 -1.9165,0 -3.49121,-0.63477 -1.5625,-0.63476 -2.66113,-1.84326 -1.09863,-1.20849 -1.69678,-2.96631 -0.58593,-1.75781 -0.58593,-4.01611 0,-2.22168 0.58593,-3.97949 0.58594,-1.77002 1.70899,-3.02735 1.07422,-1.19628 2.66113,-1.83105 1.59912,-0.63477 3.479,-0.63477 1.95313,0 3.50342,0.64698 1.5625,0.63476 2.64893,1.81884 z m -0.21973,7.00684 q 0,-3.54004 -1.58691,-5.45654 -1.58692,-1.92871 -4.3335,-1.92871 -2.77099,0 -4.35791,1.92871 -1.57471,1.9165 -1.57471,5.45654 0,3.57666 1.61133,5.48096 1.61133,1.89209 4.32129,1.89209 2.70996,0 4.30908,-1.89209 1.61133,-1.9043 1.61133,-5.48096 z"
       style="font-style:normal;font-variant:normal;font-weight:normal;font-stretch:normal;font-size:25px;line-height:125%;font-family:sans-serif;-inkscape-font-specification:'sans-serif, Normal';text-align:start;writing-mode:lr-tb;text-anchor:start"
       id="path8551" />
    <path
       d="m -238.92865,610.13416 -2.69775,0 0,5.11474 -2.34375,0 0,-5.11474 -8.70362,0 0,-2.80762 8.80127,-10.25391 2.2461,0 0,11.1084 2.69775,0 0,1.95313 z m -5.0415,-1.95313 0,-8.20312 -7.04346,8.20312 7.04346,0 z"
       style="font-style:normal;font-variant:normal;font-weight:normal;font-stretch:normal;font-size:25px;line-height:125%;font-family:sans-serif;-inkscape-font-specification:'sans-serif, Normal';text-align:start;writing-mode:lr-tb;text-anchor:start"
       id="path8553" />
    <path
       d="m -224.46332,615.2489 -9.83887,0 0,-1.85547 3.78418,0 0,-12.18261 -3.78418,0 0,-1.66016 q 0.76905,0 1.64795,-0.12207 0.87891,-0.13428 1.33057,-0.37842 0.56152,-0.30517 0.87891,-0.76904 0.32959,-0.47608 0.37841,-1.26953 l 1.89209,0 0,16.38183 3.71094,0 0,1.85547 z"
       style="font-style:normal;font-variant:normal;font-weight:normal;font-stretch:normal;font-size:25px;line-height:125%;font-family:sans-serif;-inkscape-font-specification:'sans-serif, Normal';text-align:start;writing-mode:lr-tb;text-anchor:start"
       id="path8555" />
  </g>
  <g
     transform="matrix(0,-1,1,0,0,0)"
     inkscape:transform-center-x="-80.000014"
     inkscape:transform-center-y="67.692322"
     style="font-style:normal;font-weight:normal;font-size:40px;line-height:125%;font-family:sans-serif;letter-spacing:0px;word-spacing:0px;opacity:0.3;fill:#000000;fill-opacity:1;stroke:none;stroke-width:1px;stroke-linecap:butt;stroke-linejoin:miter;stroke-opacity:1"
     id="text3703-94-7-7-5-0">
    <path
       d="m -257.30023,640.57867 q 1.11084,1.22071 1.69678,2.99073 0.59814,1.77002 0.59814,4.01611 0,2.24609 -0.61035,4.02832 -0.59815,1.77002 -1.68457,2.9541 -1.12305,1.23291 -2.66113,1.85547 -1.52588,0.62256 -3.49122,0.62256 -1.9165,0 -3.49121,-0.63477 -1.5625,-0.63476 -2.66113,-1.84326 -1.09863,-1.20849 -1.69678,-2.96631 -0.58593,-1.75781 -0.58593,-4.01611 0,-2.22168 0.58593,-3.97949 0.58594,-1.77002 1.70899,-3.02735 1.07422,-1.19628 2.66113,-1.83105 1.59912,-0.63477 3.479,-0.63477 1.95313,0 3.50342,0.64698 1.5625,0.63476 2.64893,1.81884 z m -0.21973,7.00684 q 0,-3.54004 -1.58691,-5.45654 -1.58692,-1.92871 -4.3335,-1.92871 -2.77099,0 -4.35791,1.92871 -1.57471,1.9165 -1.57471,5.45654 0,3.57666 1.61133,5.48096 1.61133,1.89209 4.32129,1.89209 2.70996,0 4.30908,-1.89209 1.61133,-1.9043 1.61133,-5.48096 z"
       style="font-style:normal;font-variant:normal;font-weight:normal;font-stretch:normal;font-size:25px;line-height:125%;font-family:sans-serif;-inkscape-font-specification:'sans-serif, Normal';text-align:start;writing-mode:lr-tb;text-anchor:start"
       id="path8544" />
    <path
       d="m -238.92865,651.5528 -2.69775,0 0,5.11474 -2.34375,0 0,-5.11474 -8.70362,0 0,-2.80762 8.80127,-10.25391 2.2461,0 0,11.1084 2.69775,0 0,1.95313 z m -5.0415,-1.95313 0,-8.20312 -7.04346,8.20312 7.04346,0 z"
       style="font-style:normal;font-variant:normal;font-weight:normal;font-stretch:normal;font-size:25px;line-height:125%;font-family:sans-serif;-inkscape-font-specification:'sans-serif, Normal';text-align:start;writing-mode:lr-tb;text-anchor:start"
       id="path8546" />
    <path
       d="m -223.42572,656.66754 -12.30469,0 0,-2.55127 q 1.28174,-1.09863 2.56348,-2.19726 1.29394,-1.09864 2.40478,-2.18506 2.34375,-2.27051 3.21045,-3.60108 0.8667,-1.34277 0.8667,-2.89306 0,-1.41602 -0.93994,-2.20948 -0.92773,-0.80566 -2.6001,-0.80566 -1.11084,0 -2.40478,0.39063 -1.29395,0.39062 -2.52686,1.19628 l -0.12207,0 0,-2.56347 q 0.8667,-0.42725 2.30713,-0.78125 1.45264,-0.35401 2.80762,-0.35401 2.79541,0 4.38232,1.35498 1.58692,1.34278 1.58692,3.64991 0,1.03759 -0.26856,1.94091 -0.25635,0.89112 -0.76904,1.69678 -0.47608,0.75684 -1.12305,1.48926 -0.63476,0.73242 -1.55029,1.62354 -1.30615,1.28173 -2.69775,2.49023 -1.39161,1.19629 -2.6001,2.22168 l 9.77783,0 0,2.0874 z"
       style="font-style:normal;font-variant:normal;font-weight:normal;font-stretch:normal;font-size:25px;line-height:125%;font-family:sans-serif;-inkscape-font-specification:'sans-serif, Normal';text-align:start;writing-mode:lr-tb;text-anchor:start"
       id="path8548" />
  </g>
  <g
     transform="matrix(0,-1,1,0,0,0)"
     inkscape:transform-center-x="-80.000014"
     inkscape:transform-center-y="67.692322"
     style="font-style:normal;font-weight:normal;font-size:40px;line-height:125%;font-family:sans-serif;letter-spacing:0px;word-spacing:0px;opacity:0.3;fill:#000000;fill-opacity:1;stroke:none;stroke-width:1px;stroke-linecap:butt;stroke-linejoin:miter;stroke-opacity:1"
     id="text3703-94-7-7-9-5">
    <path
       d="m -257.30023,683.99731 q 1.11084,1.22071 1.69678,2.99073 0.59814,1.77002 0.59814,4.01611 0,2.24609 -0.61035,4.02832 -0.59815,1.77002 -1.68457,2.9541 -1.12305,1.23291 -2.66113,1.85547 -1.52588,0.62256 -3.49122,0.62256 -1.9165,0 -3.49121,-0.63477 -1.5625,-0.63476 -2.66113,-1.84326 -1.09863,-1.20849 -1.69678,-2.96631 -0.58593,-1.75781 -0.58593,-4.01611 0,-2.22168 0.58593,-3.97949 0.58594,-1.77002 1.70899,-3.02735 1.07422,-1.19628 2.66113,-1.83105 1.59912,-0.63477 3.479,-0.63477 1.95313,0 3.50342,0.64698 1.5625,0.63476 2.64893,1.81884 z m -0.21973,7.00684 q 0,-3.54004 -1.58691,-5.45654 -1.58692,-1.92871 -4.3335,-1.92871 -2.77099,0 -4.35791,1.92871 -1.57471,1.9165 -1.57471,5.45654 0,3.57666 1.61133,5.48096 1.61133,1.89209 4.32129,1.89209 2.70996,0 4.30908,-1.89209 1.61133,-1.9043 1.61133,-5.48096 z"
       style="font-style:normal;font-variant:normal;font-weight:normal;font-stretch:normal;font-size:25px;line-height:125%;font-family:sans-serif;-inkscape-font-specification:'sans-serif, Normal';text-align:start;writing-mode:lr-tb;text-anchor:start"
       id="path8537" />
    <path
       d="m -238.92865,694.97144 -2.69775,0 0,5.11474 -2.34375,0 0,-5.11474 -8.70362,0 0,-2.80762 8.80127,-10.25391 2.2461,0 0,11.1084 2.69775,0 0,1.95313 z m -5.0415,-1.95313 0,-8.20312 -7.04346,8.20312 7.04346,0 z"
       style="font-style:normal;font-variant:normal;font-weight:normal;font-stretch:normal;font-size:25px;line-height:125%;font-family:sans-serif;-inkscape-font-specification:'sans-serif, Normal';text-align:start;writing-mode:lr-tb;text-anchor:start"
       id="path8539" />
    <path
       d="m -225.02484,691.33374 q 0.58594,0.5249 0.96435,1.31836 0.37842,0.79346 0.37842,2.05078 0,1.24512 -0.45166,2.28272 -0.45166,1.03759 -1.26953,1.80664 -0.91553,0.85449 -2.16064,1.26953 -1.23291,0.40283 -2.70996,0.40283 -1.51368,0 -2.97852,-0.36621 -1.46484,-0.35401 -2.40479,-0.78125 l 0,-2.55127 0.18311,0 q 1.0376,0.68359 2.44141,1.13525 1.4038,0.45166 2.70996,0.45166 0.76904,0 1.63574,-0.25634 0.8667,-0.25635 1.40381,-0.75684 0.56152,-0.53711 0.83008,-1.18408 0.28076,-0.64698 0.28076,-1.63574 0,-0.97657 -0.31739,-1.61133 -0.30517,-0.64698 -0.85449,-1.01319 -0.54931,-0.37841 -1.33056,-0.51269 -0.78125,-0.14649 -1.68457,-0.14649 l -1.09864,0 0,-2.02636 0.8545,0 q 1.85546,0 2.9541,-0.76905 1.11084,-0.78125 1.11084,-2.2705 0,-0.65918 -0.28076,-1.14746 -0.28077,-0.50049 -0.78125,-0.81788 -0.52491,-0.31738 -1.12305,-0.43945 -0.59815,-0.12207 -1.35498,-0.12207 -1.15967,0 -2.46582,0.41504 -1.30615,0.41504 -2.46582,1.17187 l -0.12207,0 0,-2.55126 q 0.8667,-0.42725 2.30713,-0.78125 1.45263,-0.36622 2.80761,-0.36622 1.33057,0 2.34375,0.24414 1.01319,0.24415 1.83106,0.78125 0.8789,0.58594 1.33056,1.41602 0.45166,0.83008 0.45166,1.94092 0,1.51367 -1.07421,2.64892 -1.06202,1.12305 -2.51465,1.41602 l 0,0.1709 q 0.58593,0.0976 1.34277,0.41504 0.75684,0.30517 1.28174,0.76904 z"
       style="font-style:normal;font-variant:normal;font-weight:normal;font-stretch:normal;font-size:25px;line-height:125%;font-family:sans-serif;-inkscape-font-specification:'sans-serif, Normal';text-align:start;writing-mode:lr-tb;text-anchor:start"
       id="path8541" />
  </g>
  <g
     transform="matrix(0,-1,1,0,0,0)"
     inkscape:transform-center-x="-80.000014"
     inkscape:transform-center-y="67.692322"
     style="font-style:normal;font-weight:normal;font-size:40px;line-height:125%;font-family:sans-serif;letter-spacing:0px;word-spacing:0px;opacity:0.3;fill:#000000;fill-opacity:1;stroke:none;stroke-width:1px;stroke-linecap:butt;stroke-linejoin:miter;stroke-opacity:1"
     id="text3703-94-7-7-4-2">
    <path
       d="m -257.30023,727.41589 q 1.11084,1.22071 1.69678,2.99073 0.59814,1.77002 0.59814,4.01611 0,2.24609 -0.61035,4.02832 -0.59815,1.77002 -1.68457,2.9541 -1.12305,1.23291 -2.66113,1.85547 -1.52588,0.62256 -3.49122,0.62256 -1.9165,0 -3.49121,-0.63477 -1.5625,-0.63476 -2.66113,-1.84326 -1.09863,-1.20849 -1.69678,-2.96631 -0.58593,-1.75781 -0.58593,-4.01611 0,-2.22168 0.58593,-3.97949 0.58594,-1.77002 1.70899,-3.02735 1.07422,-1.19629 2.66113,-1.83105 1.59912,-0.63477 3.479,-0.63477 1.95313,0 3.50342,0.64698 1.5625,0.63476 2.64893,1.81884 z m -0.21973,7.00684 q 0,-3.54004 -1.58691,-5.45654 -1.58692,-1.92871 -4.3335,-1.92871 -2.77099,0 -4.35791,1.92871 -1.57471,1.9165 -1.57471,5.45654 0,3.57666 1.61133,5.48096 1.61133,1.89209 4.32129,1.89209 2.70996,0 4.30908,-1.89209 1.61133,-1.9043 1.61133,-5.48096 z"
       style="font-style:normal;font-variant:normal;font-weight:normal;font-stretch:normal;font-size:25px;line-height:125%;font-family:sans-serif;-inkscape-font-specification:'sans-serif, Normal';text-align:start;writing-mode:lr-tb;text-anchor:start"
       id="path8530" />
    <path
       d="m -238.92865,738.39001 -2.69775,0 0,5.11475 -2.34375,0 0,-5.11475 -8.70362,0 0,-2.80761 8.80127,-10.25391 2.2461,0 0,11.1084 2.69775,0 0,1.95312 z m -5.0415,-1.95312 0,-8.20313 -7.04346,8.20313 7.04346,0 z"
       style="font-style:normal;font-variant:normal;font-weight:normal;font-stretch:normal;font-size:25px;line-height:125%;font-family:sans-serif;-inkscape-font-specification:'sans-serif, Normal';text-align:start;writing-mode:lr-tb;text-anchor:start"
       id="path8532" />
    <path
       d="m -223.01068,738.39001 -2.69776,0 0,5.11475 -2.34375,0 0,-5.11475 -8.70361,0 0,-2.80761 8.80127,-10.25391 2.24609,0 0,11.1084 2.69776,0 0,1.95312 z m -5.04151,-1.95312 0,-8.20313 -7.04345,8.20313 7.04345,0 z"
       style="font-style:normal;font-variant:normal;font-weight:normal;font-stretch:normal;font-size:25px;line-height:125%;font-family:sans-serif;-inkscape-font-specification:'sans-serif, Normal';text-align:start;writing-mode:lr-tb;text-anchor:start"
       id="path8534" />
  </g>
  <g
     transform="matrix(0,-1,1,0,0,0)"
     inkscape:transform-center-x="-80.000014"
     inkscape:transform-center-y="67.692322"
     style="font-style:normal;font-weight:normal;font-size:40px;line-height:125%;font-family:sans-serif;letter-spacing:0px;word-spacing:0px;opacity:0.3;fill:#000000;fill-opacity:1;stroke:none;stroke-width:1px;stroke-linecap:butt;stroke-linejoin:miter;stroke-opacity:1"
     id="text3703-94-7-7-41">
    <path
       d="m -257.30023,770.83447 q 1.11084,1.22071 1.69678,2.99073 0.59814,1.77001 0.59814,4.01611 0,2.24609 -0.61035,4.02832 -0.59815,1.77002 -1.68457,2.9541 -1.12305,1.23291 -2.66113,1.85547 -1.52588,0.62256 -3.49122,0.62256 -1.9165,0 -3.49121,-0.63477 -1.5625,-0.63476 -2.66113,-1.84326 -1.09863,-1.2085 -1.69678,-2.96631 -0.58593,-1.75781 -0.58593,-4.01611 0,-2.22168 0.58593,-3.97949 0.58594,-1.77002 1.70899,-3.02735 1.07422,-1.19629 2.66113,-1.83105 1.59912,-0.63477 3.479,-0.63477 1.95313,0 3.50342,0.64697 1.5625,0.63477 2.64893,1.81885 z m -0.21973,7.00684 q 0,-3.54004 -1.58691,-5.45654 -1.58692,-1.92872 -4.3335,-1.92872 -2.77099,0 -4.35791,1.92872 -1.57471,1.9165 -1.57471,5.45654 0,3.57666 1.61133,5.48096 1.61133,1.89209 4.32129,1.89209 2.70996,0 4.30908,-1.89209 1.61133,-1.9043 1.61133,-5.48096 z"
       style="font-style:normal;font-variant:normal;font-weight:normal;font-stretch:normal;font-size:25px;line-height:125%;font-family:sans-serif;-inkscape-font-specification:'sans-serif, Normal';text-align:start;writing-mode:lr-tb;text-anchor:start"
       id="path8523" />
    <path
       d="m -239.49017,781.14941 q 0,1.26954 -0.46387,2.4292 -0.46387,1.15967 -1.26953,1.95313 -0.87891,0.85449 -2.09961,1.31836 -1.2085,0.45166 -2.80762,0.45166 -1.48926,0 -2.86865,-0.31739 -1.3794,-0.30517 -2.33154,-0.74462 l 0,-2.57569 0.17089,0 q 1.00098,0.63477 2.34375,1.08643 1.34278,0.43945 2.63672,0.43945 0.8667,0 1.67237,-0.24414 0.81787,-0.24414 1.45263,-0.85449 0.53711,-0.5249 0.80567,-1.25733 0.28076,-0.73242 0.28076,-1.69677 0,-0.93994 -0.32959,-1.58692 -0.31738,-0.64697 -0.89111,-1.03759 -0.63477,-0.46387 -1.5503,-0.64698 -0.90332,-0.19531 -2.02636,-0.19531 -1.07422,0 -2.0752,0.14648 -0.98877,0.14649 -1.70898,0.29297 l 0,-9.36279 10.9375,0 0,2.13623 -8.58155,0 0,4.83399 q 0.52491,-0.0488 1.07422,-0.0733 0.54932,-0.0244 0.95215,-0.0244 1.47705,0 2.58789,0.25635 1.11084,0.24414 2.03858,0.8789 0.97656,0.67139 1.51367,1.7334 0.53711,1.06201 0.53711,2.66113 z"
       style="font-style:normal;font-variant:normal;font-weight:normal;font-stretch:normal;font-size:25px;line-height:125%;font-family:sans-serif;-inkscape-font-specification:'sans-serif, Normal';text-align:start;writing-mode:lr-tb;text-anchor:start"
       id="path8525" />
    <path
       d="m -224.46332,786.92334 -9.83887,0 0,-1.85547 3.78418,0 0,-12.18262 -3.78418,0 0,-1.66015 q 0.76905,0 1.64795,-0.12207 0.87891,-0.13428 1.33057,-0.37842 0.56152,-0.30518 0.87891,-0.76904 0.32959,-0.47608 0.37841,-1.26953 l 1.89209,0 0,16.38183 3.71094,0 0,1.85547 z"
       style="font-style:normal;font-variant:normal;font-weight:normal;font-stretch:normal;font-size:25px;line-height:125%;font-family:sans-serif;-inkscape-font-specification:'sans-serif, Normal';text-align:start;writing-mode:lr-tb;text-anchor:start"
       id="path8527" />
  </g>
  <g
     transform="matrix(0,-1,1,0,0,0)"
     inkscape:transform-center-x="-80.000014"
     inkscape:transform-center-y="67.692322"
     style="font-style:normal;font-weight:normal;font-size:40px;line-height:125%;font-family:sans-serif;letter-spacing:0px;word-spacing:0px;opacity:0.3;fill:#000000;fill-opacity:1;stroke:none;stroke-width:1px;stroke-linecap:butt;stroke-linejoin:miter;stroke-opacity:1"
     id="text3703-94-7-7-5-3">
    <path
       d="m -257.30023,812.25311 q 1.11084,1.22071 1.69678,2.99073 0.59814,1.77001 0.59814,4.01611 0,2.24609 -0.61035,4.02832 -0.59815,1.77002 -1.68457,2.9541 -1.12305,1.23291 -2.66113,1.85547 -1.52588,0.62256 -3.49122,0.62256 -1.9165,0 -3.49121,-0.63477 -1.5625,-0.63476 -2.66113,-1.84326 -1.09863,-1.2085 -1.69678,-2.96631 -0.58593,-1.75781 -0.58593,-4.01611 0,-2.22168 0.58593,-3.97949 0.58594,-1.77002 1.70899,-3.02735 1.07422,-1.19629 2.66113,-1.83105 1.59912,-0.63477 3.479,-0.63477 1.95313,0 3.50342,0.64698 1.5625,0.63476 2.64893,1.81884 z m -0.21973,7.00684 q 0,-3.54004 -1.58691,-5.45654 -1.58692,-1.92872 -4.3335,-1.92872 -2.77099,0 -4.35791,1.92872 -1.57471,1.9165 -1.57471,5.45654 0,3.57666 1.61133,5.48096 1.61133,1.89209 4.32129,1.89209 2.70996,0 4.30908,-1.89209 1.61133,-1.9043 1.61133,-5.48096 z"
       style="font-style:normal;font-variant:normal;font-weight:normal;font-stretch:normal;font-size:25px;line-height:125%;font-family:sans-serif;-inkscape-font-specification:'sans-serif, Normal';text-align:start;writing-mode:lr-tb;text-anchor:start"
       id="path8516" />
    <path
       d="m -239.49017,822.56805 q 0,1.26954 -0.46387,2.4292 -0.46387,1.15967 -1.26953,1.95313 -0.87891,0.85449 -2.09961,1.31836 -1.2085,0.45166 -2.80762,0.45166 -1.48926,0 -2.86865,-0.31738 -1.3794,-0.30518 -2.33154,-0.74463 l 0,-2.57569 0.17089,0 q 1.00098,0.63477 2.34375,1.08643 1.34278,0.43945 2.63672,0.43945 0.8667,0 1.67237,-0.24414 0.81787,-0.24414 1.45263,-0.85449 0.53711,-0.5249 0.80567,-1.25733 0.28076,-0.73242 0.28076,-1.69677 0,-0.93994 -0.32959,-1.58692 -0.31738,-0.64697 -0.89111,-1.03759 -0.63477,-0.46387 -1.5503,-0.64698 -0.90332,-0.19531 -2.02636,-0.19531 -1.07422,0 -2.0752,0.14648 -0.98877,0.14649 -1.70898,0.29297 l 0,-9.36279 10.9375,0 0,2.13623 -8.58155,0 0,4.83399 q 0.52491,-0.0488 1.07422,-0.0733 0.54932,-0.0244 0.95215,-0.0244 1.47705,0 2.58789,0.25635 1.11084,0.24414 2.03858,0.8789 0.97656,0.67139 1.51367,1.7334 0.53711,1.06201 0.53711,2.66113 z"
       style="font-style:normal;font-variant:normal;font-weight:normal;font-stretch:normal;font-size:25px;line-height:125%;font-family:sans-serif;-inkscape-font-specification:'sans-serif, Normal';text-align:start;writing-mode:lr-tb;text-anchor:start"
       id="path8518" />
    <path
       d="m -223.42572,828.34198 -12.30469,0 0,-2.55127 q 1.28174,-1.09863 2.56348,-2.19727 1.29394,-1.09863 2.40478,-2.18505 2.34375,-2.27051 3.21045,-3.60108 0.8667,-1.34277 0.8667,-2.89306 0,-1.41602 -0.93994,-2.20948 -0.92773,-0.80566 -2.6001,-0.80566 -1.11084,0 -2.40478,0.39062 -1.29395,0.39063 -2.52686,1.19629 l -0.12207,0 0,-2.56347 q 0.8667,-0.42725 2.30713,-0.78125 1.45264,-0.35401 2.80762,-0.35401 2.79541,0 4.38232,1.35498 1.58692,1.34278 1.58692,3.64991 0,1.03759 -0.26856,1.94091 -0.25635,0.89112 -0.76904,1.69678 -0.47608,0.75684 -1.12305,1.48926 -0.63476,0.73242 -1.55029,1.62353 -1.30615,1.28174 -2.69775,2.49024 -1.39161,1.19629 -2.6001,2.22168 l 9.77783,0 0,2.0874 z"
       style="font-style:normal;font-variant:normal;font-weight:normal;font-stretch:normal;font-size:25px;line-height:125%;font-family:sans-serif;-inkscape-font-specification:'sans-serif, Normal';text-align:start;writing-mode:lr-tb;text-anchor:start"
       id="path8520" />
  </g>
  <g
     transform="matrix(0,-1,1,0,0,0)"
     inkscape:transform-center-x="-80.000014"
     inkscape:transform-center-y="67.692322"
     style="font-style:normal;font-weight:normal;font-size:40px;line-height:125%;font-family:sans-serif;letter-spacing:0px;word-spacing:0px;opacity:0.3;fill:#000000;fill-opacity:1;stroke:none;stroke-width:1px;stroke-linecap:butt;stroke-linejoin:miter;stroke-opacity:1"
     id="text3703-94-7-7-9-6">
    <path
       d="m -257.30023,855.67175 q 1.11084,1.22071 1.69678,2.99073 0.59814,1.77002 0.59814,4.01611 0,2.24609 -0.61035,4.02832 -0.59815,1.77002 -1.68457,2.9541 -1.12305,1.23291 -2.66113,1.85547 -1.52588,0.62256 -3.49122,0.62256 -1.9165,0 -3.49121,-0.63477 -1.5625,-0.63476 -2.66113,-1.84326 -1.09863,-1.2085 -1.69678,-2.96631 -0.58593,-1.75781 -0.58593,-4.01611 0,-2.22168 0.58593,-3.97949 0.58594,-1.77002 1.70899,-3.02735 1.07422,-1.19629 2.66113,-1.83105 1.59912,-0.63477 3.479,-0.63477 1.95313,0 3.50342,0.64698 1.5625,0.63476 2.64893,1.81884 z m -0.21973,7.00684 q 0,-3.54004 -1.58691,-5.45654 -1.58692,-1.92872 -4.3335,-1.92872 -2.77099,0 -4.35791,1.92872 -1.57471,1.9165 -1.57471,5.45654 0,3.57666 1.61133,5.48096 1.61133,1.89209 4.32129,1.89209 2.70996,0 4.30908,-1.89209 1.61133,-1.9043 1.61133,-5.48096 z"
       style="font-style:normal;font-variant:normal;font-weight:normal;font-stretch:normal;font-size:25px;line-height:125%;font-family:sans-serif;-inkscape-font-specification:'sans-serif, Normal';text-align:start;writing-mode:lr-tb;text-anchor:start"
       id="path8509" />
    <path
       d="m -239.49017,865.98669 q 0,1.26954 -0.46387,2.4292 -0.46387,1.15967 -1.26953,1.95313 -0.87891,0.85449 -2.09961,1.31836 -1.2085,0.45166 -2.80762,0.45166 -1.48926,0 -2.86865,-0.31738 -1.3794,-0.30518 -2.33154,-0.74463 l 0,-2.57569 0.17089,0 q 1.00098,0.63477 2.34375,1.08643 1.34278,0.43945 2.63672,0.43945 0.8667,0 1.67237,-0.24414 0.81787,-0.24414 1.45263,-0.85449 0.53711,-0.5249 0.80567,-1.25733 0.28076,-0.73242 0.28076,-1.69677 0,-0.93994 -0.32959,-1.58692 -0.31738,-0.64697 -0.89111,-1.03759 -0.63477,-0.46387 -1.5503,-0.64698 -0.90332,-0.19531 -2.02636,-0.19531 -1.07422,0 -2.0752,0.14648 -0.98877,0.14649 -1.70898,0.29297 l 0,-9.36279 10.9375,0 0,2.13623 -8.58155,0 0,4.83399 q 0.52491,-0.0488 1.07422,-0.0733 0.54932,-0.0244 0.95215,-0.0244 1.47705,0 2.58789,0.25635 1.11084,0.24414 2.03858,0.8789 0.97656,0.67139 1.51367,1.7334 0.53711,1.06201 0.53711,2.66113 z"
       style="font-style:normal;font-variant:normal;font-weight:normal;font-stretch:normal;font-size:25px;line-height:125%;font-family:sans-serif;-inkscape-font-specification:'sans-serif, Normal';text-align:start;writing-mode:lr-tb;text-anchor:start"
       id="path8511" />
    <path
       d="m -225.02484,863.00818 q 0.58594,0.5249 0.96435,1.31836 0.37842,0.79346 0.37842,2.05078 0,1.24512 -0.45166,2.28271 -0.45166,1.0376 -1.26953,1.80664 -0.91553,0.8545 -2.16064,1.26954 -1.23291,0.40283 -2.70996,0.40283 -1.51368,0 -2.97852,-0.36621 -1.46484,-0.35401 -2.40479,-0.78125 l 0,-2.55127 0.18311,0 q 1.0376,0.68359 2.44141,1.13525 1.4038,0.45166 2.70996,0.45166 0.76904,0 1.63574,-0.25635 0.8667,-0.25634 1.40381,-0.75683 0.56152,-0.53711 0.83008,-1.18408 0.28076,-0.64698 0.28076,-1.63575 0,-0.97656 -0.31739,-1.61132 -0.30517,-0.64698 -0.85449,-1.01319 -0.54931,-0.37842 -1.33056,-0.51269 -0.78125,-0.14649 -1.68457,-0.14649 l -1.09864,0 0,-2.02636 0.8545,0 q 1.85546,0 2.9541,-0.76905 1.11084,-0.78125 1.11084,-2.27051 0,-0.65918 -0.28076,-1.14746 -0.28077,-0.50048 -0.78125,-0.81787 -0.52491,-0.31738 -1.12305,-0.43945 -0.59815,-0.12207 -1.35498,-0.12207 -1.15967,0 -2.46582,0.41504 -1.30615,0.41504 -2.46582,1.17187 l -0.12207,0 0,-2.55127 q 0.8667,-0.42724 2.30713,-0.78125 1.45263,-0.36621 2.80761,-0.36621 1.33057,0 2.34375,0.24414 1.01319,0.24414 1.83106,0.78125 0.8789,0.58594 1.33056,1.41602 0.45166,0.83008 0.45166,1.94092 0,1.51367 -1.07421,2.64892 -1.06202,1.12305 -2.51465,1.41602 l 0,0.1709 q 0.58593,0.0976 1.34277,0.41504 0.75684,0.30517 1.28174,0.76904 z"
       style="font-style:normal;font-variant:normal;font-weight:normal;font-stretch:normal;font-size:25px;line-height:125%;font-family:sans-serif;-inkscape-font-specification:'sans-serif, Normal';text-align:start;writing-mode:lr-tb;text-anchor:start"
       id="path8513" />
  </g>
  <g
     transform="matrix(0,-1,1,0,0,0)"
     inkscape:transform-center-x="-80.000014"
     inkscape:transform-center-y="67.692322"
     style="font-style:normal;font-weight:normal;font-size:40px;line-height:125%;font-family:sans-serif;letter-spacing:0px;word-spacing:0px;opacity:0.3;fill:#000000;fill-opacity:1;stroke:none;stroke-width:1px;stroke-linecap:butt;stroke-linejoin:miter;stroke-opacity:1"
     id="text3703-94-7-7-4-9">
    <path
       d="m -257.30023,897.09033 q 1.11084,1.22071 1.69678,2.99072 0.59814,1.77002 0.59814,4.01612 0,2.24609 -0.61035,4.02832 -0.59815,1.77002 -1.68457,2.9541 -1.12305,1.23291 -2.66113,1.85547 -1.52588,0.62256 -3.49122,0.62256 -1.9165,0 -3.49121,-0.63477 -1.5625,-0.63476 -2.66113,-1.84326 -1.09863,-1.2085 -1.69678,-2.96631 -0.58593,-1.75781 -0.58593,-4.01611 0,-2.22168 0.58593,-3.97949 0.58594,-1.77002 1.70899,-3.02735 1.07422,-1.19629 2.66113,-1.83105 1.59912,-0.63477 3.479,-0.63477 1.95313,0 3.50342,0.64697 1.5625,0.63477 2.64893,1.81885 z m -0.21973,7.00684 q 0,-3.54004 -1.58691,-5.45655 -1.58692,-1.92871 -4.3335,-1.92871 -2.77099,0 -4.35791,1.92871 -1.57471,1.91651 -1.57471,5.45655 0,3.57666 1.61133,5.48095 1.61133,1.89209 4.32129,1.89209 2.70996,0 4.30908,-1.89209 1.61133,-1.90429 1.61133,-5.48095 z"
       style="font-style:normal;font-variant:normal;font-weight:normal;font-stretch:normal;font-size:25px;line-height:125%;font-family:sans-serif;-inkscape-font-specification:'sans-serif, Normal';text-align:start;writing-mode:lr-tb;text-anchor:start"
       id="path8502" />
    <path
       d="m -239.49017,907.40527 q 0,1.26953 -0.46387,2.4292 -0.46387,1.15967 -1.26953,1.95313 -0.87891,0.85449 -2.09961,1.31836 -1.2085,0.45166 -2.80762,0.45166 -1.48926,0 -2.86865,-0.31739 -1.3794,-0.30517 -2.33154,-0.74462 l 0,-2.57569 0.17089,0 q 1.00098,0.63477 2.34375,1.08643 1.34278,0.43945 2.63672,0.43945 0.8667,0 1.67237,-0.24414 0.81787,-0.24414 1.45263,-0.85449 0.53711,-0.5249 0.80567,-1.25733 0.28076,-0.73242 0.28076,-1.69677 0,-0.93995 -0.32959,-1.58692 -0.31738,-0.64697 -0.89111,-1.0376 -0.63477,-0.46386 -1.5503,-0.64697 -0.90332,-0.19531 -2.02636,-0.19531 -1.07422,0 -2.0752,0.14648 -0.98877,0.14649 -1.70898,0.29297 l 0,-9.36279 10.9375,0 0,2.13623 -8.58155,0 0,4.83398 q 0.52491,-0.0488 1.07422,-0.0732 0.54932,-0.0244 0.95215,-0.0244 1.47705,0 2.58789,0.25635 1.11084,0.24414 2.03858,0.8789 0.97656,0.67139 1.51367,1.7334 0.53711,1.06201 0.53711,2.66113 z"
       style="font-style:normal;font-variant:normal;font-weight:normal;font-stretch:normal;font-size:25px;line-height:125%;font-family:sans-serif;-inkscape-font-specification:'sans-serif, Normal';text-align:start;writing-mode:lr-tb;text-anchor:start"
       id="path8504" />
    <path
       d="m -223.01068,908.06445 -2.69776,0 0,5.11475 -2.34375,0 0,-5.11475 -8.70361,0 0,-2.80761 8.80127,-10.25391 2.24609,0 0,11.1084 2.69776,0 0,1.95312 z m -5.04151,-1.95312 0,-8.20313 -7.04345,8.20313 7.04345,0 z"
       style="font-style:normal;font-variant:normal;font-weight:normal;font-stretch:normal;font-size:25px;line-height:125%;font-family:sans-serif;-inkscape-font-specification:'sans-serif, Normal';text-align:start;writing-mode:lr-tb;text-anchor:start"
       id="path8506" />
  </g>
  <g
     transform="matrix(0,-1,1,0,0,0)"
     inkscape:transform-center-x="-80.000014"
     inkscape:transform-center-y="67.692322"
     style="font-style:normal;font-weight:normal;font-size:40px;line-height:125%;font-family:sans-serif;letter-spacing:0px;word-spacing:0px;opacity:0.3;fill:#000000;fill-opacity:1;stroke:none;stroke-width:1px;stroke-linecap:butt;stroke-linejoin:miter;stroke-opacity:1"
     id="text3703-94-7-7-49">
    <path
       d="m -257.30023,940.50891 q 1.11084,1.2207 1.69678,2.99072 0.59814,1.77002 0.59814,4.01612 0,2.24609 -0.61035,4.02832 -0.59815,1.77002 -1.68457,2.9541 -1.12305,1.23291 -2.66113,1.85547 -1.52588,0.62256 -3.49122,0.62256 -1.9165,0 -3.49121,-0.63477 -1.5625,-0.63476 -2.66113,-1.84326 -1.09863,-1.2085 -1.69678,-2.96631 -0.58593,-1.75781 -0.58593,-4.01611 0,-2.22168 0.58593,-3.9795 0.58594,-1.77001 1.70899,-3.02734 1.07422,-1.19629 2.66113,-1.83105 1.59912,-0.63477 3.479,-0.63477 1.95313,0 3.50342,0.64697 1.5625,0.63477 2.64893,1.81885 z m -0.21973,7.00684 q 0,-3.54004 -1.58691,-5.45655 -1.58692,-1.92871 -4.3335,-1.92871 -2.77099,0 -4.35791,1.92871 -1.57471,1.91651 -1.57471,5.45655 0,3.57666 1.61133,5.48095 1.61133,1.89209 4.32129,1.89209 2.70996,0 4.30908,-1.89209 1.61133,-1.90429 1.61133,-5.48095 z"
       style="font-style:normal;font-variant:normal;font-weight:normal;font-stretch:normal;font-size:25px;line-height:125%;font-family:sans-serif;-inkscape-font-specification:'sans-serif, Normal';text-align:start;writing-mode:lr-tb;text-anchor:start"
       id="path8495" />
    <path
       d="m -239.07513,950.70178 q 0,2.771 -1.83106,4.52881 -1.81885,1.74561 -4.46777,1.74561 -1.34278,0 -2.44141,-0.41504 -1.09863,-0.41504 -1.94092,-1.23291 -1.0498,-1.01319 -1.62353,-2.68555 -0.56153,-1.67236 -0.56153,-4.02832 0,-2.41699 0.5127,-4.28467 0.5249,-1.86767 1.66016,-3.32031 1.07422,-1.3794 2.77099,-2.14844 1.69678,-0.78125 3.95508,-0.78125 0.72022,0 1.2085,0.061 0.48828,0.061 0.98877,0.21972 l 0,2.33155 -0.12207,0 q -0.3418,-0.18311 -1.0376,-0.3418 -0.6836,-0.1709 -1.40381,-0.1709 -2.62451,0 -4.18701,1.64795 -1.5625,1.63574 -1.81885,4.43115 1.02539,-0.62256 2.01416,-0.93994 1.00098,-0.32959 2.30713,-0.32959 1.15967,0 2.03857,0.21973 0.89112,0.20752 1.81885,0.85449 1.07422,0.74463 1.61133,1.87988 0.54932,1.13526 0.54932,2.75879 z m -2.47803,0.0977 q 0,-1.13526 -0.3418,-1.87988 -0.32959,-0.74463 -1.09863,-1.29395 -0.56152,-0.39062 -1.24512,-0.51269 -0.68359,-0.12208 -1.42822,-0.12208 -1.0376,0 -1.92871,0.24415 -0.89112,0.24414 -1.83106,0.75683 -0.0244,0.26856 -0.0366,0.5249 -0.0122,0.24414 -0.0122,0.62256 0,1.92871 0.39062,3.05176 0.40283,1.11084 1.09863,1.75781 0.56153,0.53711 1.2085,0.79346 0.65918,0.24414 1.42822,0.24414 1.77002,0 2.7832,-1.07422 1.01319,-1.08642 1.01319,-3.11279 z"
       style="font-style:normal;font-variant:normal;font-weight:normal;font-stretch:normal;font-size:25px;line-height:125%;font-family:sans-serif;-inkscape-font-specification:'sans-serif, Normal';text-align:start;writing-mode:lr-tb;text-anchor:start"
       id="path8497" />
    <path
       d="m -224.46332,956.59778 -9.83887,0 0,-1.85547 3.78418,0 0,-12.18262 -3.78418,0 0,-1.66015 q 0.76905,0 1.64795,-0.12207 0.87891,-0.13428 1.33057,-0.37842 0.56152,-0.30518 0.87891,-0.76905 0.32959,-0.47607 0.37841,-1.26953 l 1.89209,0 0,16.38184 3.71094,0 0,1.85547 z"
       style="font-style:normal;font-variant:normal;font-weight:normal;font-stretch:normal;font-size:25px;line-height:125%;font-family:sans-serif;-inkscape-font-specification:'sans-serif, Normal';text-align:start;writing-mode:lr-tb;text-anchor:start"
       id="path8499" />
  </g>
  <g
     transform="matrix(0,-1,1,0,0,0)"
     inkscape:transform-center-x="-80.000014"
     inkscape:transform-center-y="67.692322"
     style="font-style:normal;font-weight:normal;font-size:40px;line-height:125%;font-family:sans-serif;letter-spacing:0px;word-spacing:0px;opacity:0.3;fill:#000000;fill-opacity:1;stroke:none;stroke-width:1px;stroke-linecap:butt;stroke-linejoin:miter;stroke-opacity:1"
     id="text3703-94-7-7-5-9">
    <path
       d="m -257.30023,985.92755 q 1.11084,1.2207 1.69678,2.99072 0.59814,1.77002 0.59814,4.01612 0,2.24609 -0.61035,4.02832 -0.59815,1.77002 -1.68457,2.9541 -1.12305,1.23289 -2.66113,1.85549 -1.52588,0.6225 -3.49122,0.6225 -1.9165,0 -3.49121,-0.6347 -1.5625,-0.6348 -2.66113,-1.84329 -1.09863,-1.2085 -1.69678,-2.96631 -0.58593,-1.75781 -0.58593,-4.01611 0,-2.22168 0.58593,-3.97949 0.58594,-1.77002 1.70899,-3.02735 1.07422,-1.19629 2.66113,-1.83105 1.59912,-0.63477 3.479,-0.63477 1.95313,0 3.50342,0.64697 1.5625,0.63477 2.64893,1.81885 z m -0.21973,7.00684 q 0,-3.54004 -1.58691,-5.45655 -1.58692,-1.92871 -4.3335,-1.92871 -2.77099,0 -4.35791,1.92871 -1.57471,1.91651 -1.57471,5.45655 0,3.57666 1.61133,5.48095 1.61133,1.89206 4.32129,1.89206 2.70996,0 4.30908,-1.89206 1.61133,-1.90429 1.61133,-5.48095 z"
       style="font-style:normal;font-variant:normal;font-weight:normal;font-stretch:normal;font-size:25px;line-height:125%;font-family:sans-serif;-inkscape-font-specification:'sans-serif, Normal';text-align:start;writing-mode:lr-tb;text-anchor:start"
       id="path8488" />
    <path
       d="m -239.07513,996.12042 q 0,2.771 -1.83106,4.52878 -1.81885,1.7456 -4.46777,1.7456 -1.34278,0 -2.44141,-0.415 -1.09863,-0.415 -1.94092,-1.2329 -1.0498,-1.0132 -1.62353,-2.68556 -0.56153,-1.67236 -0.56153,-4.02832 0,-2.41699 0.5127,-4.28467 0.5249,-1.86767 1.66016,-3.32031 1.07422,-1.37939 2.77099,-2.14844 1.69678,-0.78125 3.95508,-0.78125 0.72022,0 1.2085,0.061 0.48828,0.061 0.98877,0.21972 l 0,2.33155 -0.12207,0 q -0.3418,-0.18311 -1.0376,-0.3418 -0.6836,-0.1709 -1.40381,-0.1709 -2.62451,0 -4.18701,1.64795 -1.5625,1.63574 -1.81885,4.43115 1.02539,-0.62256 2.01416,-0.93994 1.00098,-0.32959 2.30713,-0.32959 1.15967,0 2.03857,0.21973 0.89112,0.20752 1.81885,0.85449 1.07422,0.74463 1.61133,1.87988 0.54932,1.13526 0.54932,2.75879 z m -2.47803,0.0977 q 0,-1.13526 -0.3418,-1.87988 -0.32959,-0.74463 -1.09863,-1.29395 -0.56152,-0.39062 -1.24512,-0.51269 -0.68359,-0.12208 -1.42822,-0.12208 -1.0376,0 -1.92871,0.24415 -0.89112,0.24414 -1.83106,0.75683 -0.0244,0.26856 -0.0366,0.5249 -0.0122,0.24414 -0.0122,0.62256 0,1.92871 0.39062,3.05176 0.40283,1.11084 1.09863,1.75781 0.56153,0.53711 1.2085,0.79341 0.65918,0.2442 1.42822,0.2442 1.77002,0 2.7832,-1.07423 1.01319,-1.08642 1.01319,-3.11279 z"
       style="font-style:normal;font-variant:normal;font-weight:normal;font-stretch:normal;font-size:25px;line-height:125%;font-family:sans-serif;-inkscape-font-specification:'sans-serif, Normal';text-align:start;writing-mode:lr-tb;text-anchor:start"
       id="path8490" />
    <path
       d="m -223.42572,1002.0164 -12.30469,0 0,-2.55125 q 1.28174,-1.09863 2.56348,-2.19727 1.29394,-1.09863 2.40478,-2.18506 2.34375,-2.2705 3.21045,-3.60107 0.8667,-1.34277 0.8667,-2.89307 0,-1.41601 -0.93994,-2.20947 -0.92773,-0.80566 -2.6001,-0.80566 -1.11084,0 -2.40478,0.39062 -1.29395,0.39063 -2.52686,1.19629 l -0.12207,0 0,-2.56348 q 0.8667,-0.42724 2.30713,-0.78125 1.45264,-0.354 2.80762,-0.354 2.79541,0 4.38232,1.35498 1.58692,1.34277 1.58692,3.6499 0,1.0376 -0.26856,1.94092 -0.25635,0.89112 -0.76904,1.69678 -0.47608,0.75684 -1.12305,1.48926 -0.63476,0.73242 -1.55029,1.62353 -1.30615,1.28174 -2.69775,2.49024 -1.39161,1.19629 -2.6001,2.22168 l 9.77783,0 0,2.08738 z"
       style="font-style:normal;font-variant:normal;font-weight:normal;font-stretch:normal;font-size:25px;line-height:125%;font-family:sans-serif;-inkscape-font-specification:'sans-serif, Normal';text-align:start;writing-mode:lr-tb;text-anchor:start"
       id="path8492" />
  </g>
  <g
     transform="matrix(0,-1,1,0,0,0)"
     inkscape:transform-center-x="-80.000014"
     inkscape:transform-center-y="67.692322"
     style="font-style:normal;font-weight:normal;font-size:40px;line-height:125%;font-family:sans-serif;letter-spacing:0px;word-spacing:0px;opacity:0.3;fill:#000000;fill-opacity:1;stroke:none;stroke-width:1px;stroke-linecap:butt;stroke-linejoin:miter;stroke-opacity:1"
     id="text3703-94-7-7-9-4">
    <path
       d="m -257.30023,1025.3462 q 1.11084,1.2207 1.69678,2.9907 0.59814,1.77 0.59814,4.0161 0,2.2461 -0.61035,4.0283 -0.59815,1.7701 -1.68457,2.9541 -1.12305,1.233 -2.66113,1.8555 -1.52588,0.6226 -3.49122,0.6226 -1.9165,0 -3.49121,-0.6348 -1.5625,-0.6348 -2.66113,-1.8433 -1.09863,-1.2084 -1.69678,-2.9663 -0.58593,-1.7578 -0.58593,-4.0161 0,-2.2217 0.58593,-3.9795 0.58594,-1.77 1.70899,-3.0273 1.07422,-1.1963 2.66113,-1.8311 1.59912,-0.6347 3.479,-0.6347 1.95313,0 3.50342,0.6469 1.5625,0.6348 2.64893,1.8189 z m -0.21973,7.0068 q 0,-3.54 -1.58691,-5.4565 -1.58692,-1.9287 -4.3335,-1.9287 -2.77099,0 -4.35791,1.9287 -1.57471,1.9165 -1.57471,5.4565 0,3.5767 1.61133,5.481 1.61133,1.8921 4.32129,1.8921 2.70996,0 4.30908,-1.8921 1.61133,-1.9043 1.61133,-5.481 z"
       style="font-style:normal;font-variant:normal;font-weight:normal;font-stretch:normal;font-size:25px;line-height:125%;font-family:sans-serif;-inkscape-font-specification:'sans-serif, Normal';text-align:start;writing-mode:lr-tb;text-anchor:start"
       id="path8481" />
    <path
       d="m -239.07513,1035.5391 q 0,2.771 -1.83106,4.5288 -1.81885,1.7456 -4.46777,1.7456 -1.34278,0 -2.44141,-0.4151 -1.09863,-0.415 -1.94092,-1.2329 -1.0498,-1.0132 -1.62353,-2.6855 -0.56153,-1.6724 -0.56153,-4.0283 0,-2.417 0.5127,-4.2847 0.5249,-1.8677 1.66016,-3.3203 1.07422,-1.3794 2.77099,-2.1485 1.69678,-0.7812 3.95508,-0.7812 0.72022,0 1.2085,0.061 0.48828,0.061 0.98877,0.2198 l 0,2.3315 -0.12207,0 q -0.3418,-0.1831 -1.0376,-0.3418 -0.6836,-0.1709 -1.40381,-0.1709 -2.62451,0 -4.18701,1.648 -1.5625,1.6357 -1.81885,4.4311 1.02539,-0.6226 2.01416,-0.9399 1.00098,-0.3296 2.30713,-0.3296 1.15967,0 2.03857,0.2197 0.89112,0.2075 1.81885,0.8545 1.07422,0.7446 1.61133,1.8799 0.54932,1.1352 0.54932,2.7588 z m -2.47803,0.098 q 0,-1.1352 -0.3418,-1.8799 -0.32959,-0.7446 -1.09863,-1.2939 -0.56152,-0.3906 -1.24512,-0.5127 -0.68359,-0.1221 -1.42822,-0.1221 -1.0376,0 -1.92871,0.2442 -0.89112,0.2441 -1.83106,0.7568 -0.0244,0.2686 -0.0366,0.5249 -0.0122,0.2441 -0.0122,0.6226 0,1.9287 0.39062,3.0517 0.40283,1.1109 1.09863,1.7578 0.56153,0.5371 1.2085,0.7935 0.65918,0.2441 1.42822,0.2441 1.77002,0 2.7832,-1.0742 1.01319,-1.0864 1.01319,-3.1128 z"
       style="font-style:normal;font-variant:normal;font-weight:normal;font-stretch:normal;font-size:25px;line-height:125%;font-family:sans-serif;-inkscape-font-specification:'sans-serif, Normal';text-align:start;writing-mode:lr-tb;text-anchor:start"
       id="path8483" />
    <path
       d="m -225.02484,1032.6826 q 0.58594,0.5249 0.96435,1.3184 0.37842,0.7934 0.37842,2.0508 0,1.2451 -0.45166,2.2827 -0.45166,1.0376 -1.26953,1.8066 -0.91553,0.8545 -2.16064,1.2695 -1.23291,0.4029 -2.70996,0.4029 -1.51368,0 -2.97852,-0.3662 -1.46484,-0.354 -2.40479,-0.7813 l 0,-2.5513 0.18311,0 q 1.0376,0.6836 2.44141,1.1353 1.4038,0.4517 2.70996,0.4517 0.76904,0 1.63574,-0.2564 0.8667,-0.2563 1.40381,-0.7568 0.56152,-0.5371 0.83008,-1.1841 0.28076,-0.647 0.28076,-1.6357 0,-0.9766 -0.31739,-1.6114 -0.30517,-0.6469 -0.85449,-1.0132 -0.54931,-0.3784 -1.33056,-0.5127 -0.78125,-0.1464 -1.68457,-0.1464 l -1.09864,0 0,-2.0264 0.8545,0 q 1.85546,0 2.9541,-0.769 1.11084,-0.7813 1.11084,-2.2706 0,-0.6591 -0.28076,-1.1474 -0.28077,-0.5005 -0.78125,-0.8179 -0.52491,-0.3174 -1.12305,-0.4394 -0.59815,-0.1221 -1.35498,-0.1221 -1.15967,0 -2.46582,0.415 -1.30615,0.4151 -2.46582,1.1719 l -0.12207,0 0,-2.5513 q 0.8667,-0.4272 2.30713,-0.7812 1.45263,-0.3662 2.80761,-0.3662 1.33057,0 2.34375,0.2441 1.01319,0.2442 1.83106,0.7813 0.8789,0.5859 1.33056,1.416 0.45166,0.8301 0.45166,1.9409 0,1.5137 -1.07421,2.6489 -1.06202,1.1231 -2.51465,1.416 l 0,0.1709 q 0.58593,0.098 1.34277,0.4151 0.75684,0.3052 1.28174,0.769 z"
       style="font-style:normal;font-variant:normal;font-weight:normal;font-stretch:normal;font-size:25px;line-height:125%;font-family:sans-serif;-inkscape-font-specification:'sans-serif, Normal';text-align:start;writing-mode:lr-tb;text-anchor:start"
       id="path8485" />
  </g>
  <path
     inkscape:connector-curvature="0"
     style="display:inline;fill:#ffffff;fill-opacity:0;stroke:#000000;stroke-width:2.01901484;stroke-linecap:butt;stroke-linejoin:miter;stroke-miterlimit:4;stroke-dasharray:none;stroke-dashoffset:0;stroke-opacity:1"
     id="rect9588-60-9"
     d="m 7.10975,291.25715 1233.28055,0 0,259.9857 -1233.28055,0 z" />
  <g
     inkscape:transform-center-x="21.538462"
     inkscape:transform-center-y="-4.6153846"
     style="font-style:normal;font-weight:normal;font-size:40px;line-height:125%;font-family:sans-serif;letter-spacing:0px;word-spacing:0px;fill:#000000;fill-opacity:1;stroke:none;stroke-width:1px;stroke-linecap:butt;stroke-linejoin:miter;stroke-opacity:1"
     id="text5164-2">
    <path
       d="m 614.14539,405.88901 -66.04981,0 q -0.26367,26.36719 -6.85547,37.88086 l -6.1084,-5.84473 q 3.42774,-6.9873 4.35059,-14.37012 0.9668,-7.42675 0.9668,-18.7207 l 0,-34.84863 30.76172,0 q -1.01075,-2.63672 -2.24122,-4.39453 l 9.00879,-1.62598 q 2.24121,4.48242 2.76856,6.02051 l 33.22265,0 0,6.85547 -65.96191,0 0,22.41211 66.1377,0 0,6.63574 z m -2.32911,-18.28125 -10.37109,0 0,8.65722 -38.93555,0 0,-8.65722 -11.82129,0 0,-5.84473 11.82129,0 0,-2.85644 7.47071,0 0,2.85644 23.81836,0 0,-2.85644 7.64648,0 0,2.85644 10.37109,0 0,5.84473 z m -18.01757,2.98828 0,-2.98828 -23.81836,0 0,2.98828 23.81836,0 z m 15.20507,42.14355 -53.87695,0 0,-23.95019 53.87695,0 0,23.95019 z m -7.33886,-14.58984 0,-3.7793 -15.86426,0 0,3.7793 15.86426,0 z m -23.24707,0 0,-3.7793 -15.82032,0 0,3.7793 15.82032,0 z m 23.24707,8.9209 0,-3.60352 -15.86426,0 0,3.60352 15.86426,0 z m -23.24707,0 0,-3.60352 -15.82032,0 0,3.60352 15.82032,0 z m 35.37597,11.33789 -3.16406,6.54785 q -13.5791,-3.82324 -25.62012,-5.40527 l 3.03223,-6.1084 q 13.66699,1.53808 25.75195,4.96582 z m -36.82617,1.05469 q -15.9082,3.82324 -26.80664,4.96582 l -3.25195,-6.85547 q 13.93066,-1.09863 26.45508,-4.13086 l 3.60351,6.02051 z"
       style="font-style:normal;font-variant:normal;font-weight:bold;font-stretch:normal;font-size:90px;line-height:125%;font-family:'微軟正黑體';-inkscape-font-specification:'微軟正黑體, Bold';text-align:start;writing-mode:lr-tb;text-anchor:start"
       id="path8476" />
    <path
       d="m 650.22449,392.57358 -7.5586,0 0,19.07226 q 1.66993,-0.92285 5.97657,-3.86718 l 1.23046,7.73437 q -15.86425,10.63477 -22.58789,13.53516 l -2.50488,-7.20703 q 7.11914,-3.2959 10.32715,-5.40528 l 0,-23.8623 -8.70117,0 0,-7.20703 8.70117,0 0,-19.95118 7.55859,0 0,19.95118 7.5586,0 0,7.20703 z m 49.08691,3.07617 -45.57129,0 0,-29.00391 45.57129,0 0,29.00391 z m -7.64648,-17.57813 0,-4.6582 -30.27832,0 0,4.6582 30.27832,0 z m 0,10.98633 0,-4.74609 -30.27832,0 0,4.74609 30.27832,0 z m 12.21679,17.75391 -32.56347,0 q -1.97754,3.03223 -3.16407,4.48242 l 33.92579,0 q -0.35157,9.84375 -1.01075,18.01758 -0.61523,8.17383 -1.27441,9.71191 -0.61523,1.49414 -2.06543,2.72461 -1.4502,1.23047 -3.95508,1.71387 -2.46094,0.52734 -10.7666,0.52734 l -2.50488,-7.20703 q 2.41699,0.17578 4.92187,0.17578 5.625,0.0439 6.85547,-1.45019 1.23047,-1.49414 1.80176,-17.62207 l -2.41699,0 q -6.76758,16.3916 -25.92774,26.1914 l -5.58105,-5.22949 q 17.05078,-7.86621 23.81836,-20.96191 l -5.66895,0 q -8.52539,12.04101 -27.68554,20.61035 l -5.14161,-5.58106 q 16.83106,-6.85546 24.12598,-15.02929 l -7.73437,0 q -5.27344,4.48242 -9.84375,7.38281 l -5.09766,-5.49316 q 10.06348,-5.58106 15.99609,-12.96387 l -14.10644,0 0,-6.5918 55.06347,0 0,6.5918 z"
       style="font-style:normal;font-variant:normal;font-weight:bold;font-stretch:normal;font-size:90px;line-height:125%;font-family:'微軟正黑體';-inkscape-font-specification:'微軟正黑體, Bold';text-align:start;writing-mode:lr-tb;text-anchor:start"
       id="path8478" />
  </g>
</svg>
